# Blender 4.0.2
# www.blender.org
mtllib Enviorment.mtl
o Environment
v -2.116653 2.692790 -2.544717
v -2.124082 2.695679 -2.856836
v -0.788102 2.695678 -2.856836
v -0.788207 2.693512 -2.546115
v 4.518442 0.044910 0.292729
v 3.185565 0.044910 0.292729
v 4.518442 0.044910 -1.027005
v 3.185566 0.044910 -1.027005
v 1.843225 0.044910 0.292729
v 1.843225 0.044911 -1.027005
v 0.504690 0.044910 0.292729
v 0.504689 0.044911 -1.027005
v -0.818018 0.044910 0.292729
v -0.818018 0.044911 -1.027005
v -2.143409 0.044910 0.292729
v -2.143409 0.044911 -1.027004
v -3.446262 0.044910 0.292729
v -3.446263 0.044911 -1.027004
v 4.518442 0.044909 1.601679
v 3.185566 0.044910 1.601680
v 1.843225 0.044910 1.601679
v 0.504690 0.044910 1.601679
v -0.818018 0.044910 1.601680
v -2.143408 0.044910 1.601680
v -3.446262 0.044910 1.601679
v -2.306603 0.035920 -1.013443
v -1.158520 0.038070 -1.018325
v -2.306602 0.209929 -2.646720
v -1.158520 0.209327 -2.640047
v -2.306603 0.209929 -1.010689
v -1.158520 0.209326 -1.015779
v 3.398134 0.035920 -1.013444
v 4.532303 0.035920 -1.013445
v 3.398134 0.209929 -2.646721
v 4.532304 0.209929 -2.646722
v 3.398134 0.209928 -1.010690
v 4.532303 0.209928 -1.010690
v -0.008179 0.038070 -1.018325
v -0.008179 0.209327 -2.640047
v -0.008179 0.209326 -1.015780
v 1.133150 0.035920 -1.013444
v 1.133150 0.209929 -2.646721
v 1.133150 0.209929 -1.010689
v 2.267123 0.035920 -1.013444
v 2.267123 0.209929 -2.646721
v 2.267123 0.209929 -1.010689
v -3.446118 0.035920 -1.013443
v -3.446118 0.209929 -2.646720
v -3.446118 0.209929 -1.010689
v -3.223546 3.377982 0.348160
v -3.223546 2.700866 0.348159
v -3.223546 3.377982 -0.517630
v -3.223547 2.700867 -0.517630
v -3.451098 2.708786 0.348159
v -3.451099 2.708786 -0.517630
v -3.451098 3.380983 0.348160
v -3.451099 3.380983 -0.517630
v -3.388948 1.132202 -1.445069
v -3.388948 0.493396 -1.445069
v -3.388948 1.132202 -1.924222
v -3.388948 0.493397 -1.924222
v -3.368493 0.197730 -1.700152
v -3.368493 0.529413 -1.700152
v -3.348876 0.197730 -1.688826
v -3.348876 0.529413 -1.688826
v -3.348876 0.197730 -1.666175
v -3.348876 0.529413 -1.666175
v -3.368493 0.197730 -1.654849
v -3.368493 0.529413 -1.654849
v -3.388110 0.197730 -1.666175
v -3.388110 0.529413 -1.666175
v -3.388110 0.197730 -1.688826
v -3.388110 0.529413 -1.688826
v -3.388038 1.132671 -1.447019
v -3.388038 0.492925 -1.447020
v -3.388038 1.132671 -1.926803
v -3.388038 0.492925 -1.926804
v -3.246776 1.132671 -1.686911
v -3.246776 0.492925 -1.686912
v -3.274341 1.132671 -1.566965
v -3.274341 0.492925 -1.566966
v -3.274342 0.492925 -1.806858
v -3.274341 1.132671 -1.806857
v -3.250489 1.132671 -1.746884
v -3.250489 0.492925 -1.746885
v -3.250489 0.492925 -1.626939
v -3.250488 1.132671 -1.626938
v -3.318227 1.132671 -1.506992
v -3.318227 0.492925 -1.506993
v -3.318227 0.492925 -1.866831
v -3.318227 1.132671 -1.866830
v -3.311947 0.512917 -1.866831
v -3.311946 0.512917 -1.506993
v -3.244208 0.512917 -1.626939
v -3.244208 0.512917 -1.746885
v -3.268061 0.512917 -1.806858
v -3.268061 0.512917 -1.566966
v -3.240495 0.512917 -1.686912
v -3.387566 0.512917 -1.926804
v -3.387566 0.512917 -1.447020
v -3.388079 1.112679 -1.447019
v -3.311946 1.112679 -1.866830
v -3.311946 1.112679 -1.506992
v -3.244208 1.112679 -1.626938
v -3.244208 1.112679 -1.746884
v -3.268061 1.112679 -1.806857
v -3.268061 1.112679 -1.566965
v -3.240495 1.112679 -1.686911
v -3.388079 1.112679 -1.926803
v -3.388038 1.092687 -1.926804
v -3.246776 1.092687 -1.686911
v -3.274341 1.092687 -1.566965
v -3.274341 1.092687 -1.806857
v -3.250489 1.092687 -1.746884
v -3.250488 1.092687 -1.626938
v -3.318227 1.092687 -1.506992
v -3.318227 1.092687 -1.866830
v -3.388038 1.092687 -1.447019
v -3.388038 0.532909 -1.447020
v -3.388038 0.532909 -1.926804
v -3.246776 0.532909 -1.686912
v -3.274341 0.532909 -1.566966
v -3.274342 0.532909 -1.806858
v -3.250489 0.532909 -1.746885
v -3.250489 0.532909 -1.626939
v -3.318227 0.532909 -1.506993
v -3.318227 0.532909 -1.866831
v -3.386883 0.492925 -1.686912
v -3.386332 1.107108 -1.489059
v -3.386332 1.107109 -1.884764
v -3.269826 1.107109 -1.686911
v -3.292560 1.107109 -1.587985
v -3.292561 1.107109 -1.785837
v -3.272887 1.107109 -1.736374
v -3.272887 1.107109 -1.637448
v -3.328755 1.107109 -1.538522
v -3.328755 1.107109 -1.835301
v -3.328755 1.124444 -1.835301
v -3.328755 1.124444 -1.538522
v -3.272887 1.124444 -1.637448
v -3.272887 1.124444 -1.736374
v -3.292561 1.124444 -1.785837
v -3.292560 1.124444 -1.587985
v -3.269826 1.124444 -1.686911
v -3.386332 1.124444 -1.884764
v -3.386332 1.124444 -1.489059
v -3.339062 3.771041 1.576658
v -3.339062 3.771042 0.752293
v -3.357609 2.523070 1.576658
v -3.357609 2.523071 0.752292
v -3.357610 2.523072 -1.719132
v -3.357610 2.523071 -0.897418
v -3.339062 3.771042 -1.719131
v -3.339062 3.771042 -0.897418
v -3.339062 3.771043 -2.540039
v -3.357610 2.523072 -2.540039
v -3.339062 3.771042 -0.074227
v -3.357609 2.523071 -0.074228
v -3.339062 3.658315 1.576658
v -3.339062 3.658315 -0.897418
v -3.339062 3.658315 -0.074228
v -3.339062 3.658315 0.752293
v -3.339062 3.658316 -1.719131
v -3.339062 3.658316 -2.540039
v -3.357609 2.601069 0.752292
v -3.357610 2.601069 -1.719132
v -3.357610 2.601070 -2.540039
v -3.357609 2.601069 1.576658
v -3.357610 2.601069 -0.897418
v -3.357609 2.601069 -0.074228
v -3.402991 2.620431 1.576658
v -3.402992 2.620432 -0.897419
v -3.402991 2.620432 -0.074228
v -3.402991 2.620432 0.752292
v -3.402992 2.620432 -1.719132
v -3.402992 2.620433 -2.540039
v -3.402991 3.615045 1.576658
v -3.402992 3.615046 -0.897418
v -3.402991 3.615046 -0.074228
v -3.402991 3.615045 0.752293
v -3.402992 3.615046 -1.719131
v -3.402992 3.615047 -2.540039
v -3.427038 2.523070 1.576658
v -3.427039 2.523071 0.752292
v -3.427039 2.523072 -1.719132
v -3.427039 2.523071 -0.897418
v -3.427039 2.523072 -2.540039
v -3.427039 2.523071 -0.074228
v -3.489128 2.042175 0.674722
v -3.432557 2.044250 0.669688
v -3.431453 1.075827 0.674722
v -3.489128 1.075827 0.674722
v -3.489128 1.075827 0.055840
v -3.489128 2.042175 0.055840
v -3.432557 2.044250 0.054162
v -3.432557 1.077196 0.054162
v -3.433537 2.542298 -0.050282
v -3.433537 2.542298 0.773686
v -3.433537 0.867457 0.773685
v -3.433537 0.867458 -0.050282
v -3.388773 0.039768 -0.051724
v -3.394015 0.038064 0.778425
v -3.394016 0.038065 -2.533312
v -3.394016 0.038064 -1.718393
v -3.437181 0.864094 -2.536483
v -3.437181 0.864094 -1.716673
v -3.388774 0.039768 -0.906140
v -3.437181 0.864093 -0.898490
v -3.437181 2.541015 -0.898490
v -3.437181 2.541016 -1.716672
v -3.437181 2.541016 -2.536483
v -3.394015 0.755210 0.778425
v -3.394016 0.755211 -1.718392
v -3.388774 0.756915 -0.906139
v -3.388773 0.756915 -0.051724
v -3.394015 0.755212 -2.533311
v -3.427787 0.806435 0.778425
v -3.427787 0.806436 -1.718392
v -3.422545 0.808140 -0.906139
v -3.422544 0.808139 -0.051724
v -3.427787 0.806436 -2.533311
v -3.394015 0.038063 1.569485
v -3.437181 0.864093 1.571205
v -3.437181 2.541014 1.571206
v -3.394015 0.755210 1.569485
v -3.427787 0.806435 1.569486
v -3.397216 0.769721 -0.051724
v -3.402458 0.768018 -2.533311
v -3.402458 0.768017 0.778425
v -3.402458 0.768017 -1.718392
v -3.397217 0.769721 -0.906139
v -3.402458 0.768016 1.569485
v -3.403589 0.780272 0.778425
v -3.403590 0.780273 -1.718392
v -3.398348 0.781976 -0.906139
v -3.403589 0.780271 1.569485
v -3.398347 0.781976 -0.051724
v -3.403590 0.780273 -2.533311
v -2.091930 2.865016 -2.458737
v -1.828641 2.865016 -2.458737
v -2.091930 3.251815 -2.458737
v -1.828641 3.251815 -2.458737
v -1.829482 2.865016 -2.572029
v -1.829062 3.253465 -2.572029
v -2.091930 2.866093 -2.572029
v -2.094007 3.253465 -2.572029
v 3.488715 1.205062 -2.509125
v 4.226036 1.205062 -2.509125
v 3.488715 2.249313 -2.509125
v 4.226036 2.249313 -2.509125
v 3.488715 1.205062 -2.542670
v 4.226036 1.205062 -2.542671
v 3.488715 2.249313 -2.542670
v 4.226036 2.249313 -2.542670
v 0.668421 0.400379 -2.624712
v 1.365250 0.400379 -2.624713
v 0.668421 1.299390 -2.797186
v 1.365250 1.299390 -2.797187
v 0.668421 0.392943 -2.663472
v 1.365250 0.392943 -2.663472
v 0.668421 1.291954 -2.835946
v 1.365250 1.291954 -2.835946
v -0.494828 1.205062 -2.509125
v 0.242493 1.205062 -2.509125
v -0.494828 2.249314 -2.509125
v 0.242493 2.249313 -2.509125
v -0.494828 1.205062 -2.542670
v 0.242493 1.205062 -2.542670
v -0.494828 2.249314 -2.542670
v 0.242493 2.249314 -2.542670
v -3.431185 2.692791 -2.544717
v -2.111802 2.773707 -2.500841
v -3.431185 2.773707 -2.500841
v -3.431185 3.694476 -2.500840
v -2.111802 3.694476 -2.500841
v -2.111802 3.694476 -2.544717
v -3.431185 3.694476 -2.544717
v -2.111802 3.771104 -2.500841
v -3.431185 3.771104 -2.500840
v -2.111802 2.692790 -2.500841
v -3.431185 2.692791 -2.500841
v -3.431185 2.773707 -2.544717
v -2.111802 2.773707 -2.544717
v -0.794461 2.773707 -2.500841
v -0.794461 3.694476 -2.500841
v -0.794461 3.694476 -2.544717
v -0.794461 3.771104 -2.500841
v -0.794461 2.692790 -2.500841
v -0.794461 2.773707 -2.544717
v 0.519932 2.692790 -2.544718
v 0.520595 2.772306 -2.504860
v 0.524626 3.695920 -2.500345
v 0.524626 3.695920 -2.551137
v 0.524626 3.772548 -2.500345
v 0.520595 2.695678 -2.504860
v 0.519932 2.775004 -2.545463
v 3.204771 2.694234 -2.547513
v 3.191946 2.773006 -2.502851
v 3.191946 2.694234 -2.502851
v 3.191946 2.773006 -2.551138
v 3.191946 3.695920 -2.500346
v 3.191946 3.772547 -2.500346
v 3.191946 3.695920 -2.551138
v 0.529320 2.695678 -2.856836
v 3.201281 2.695678 -2.856836
v 4.511873 2.692789 -2.544718
v 4.511873 2.773706 -2.500842
v 4.511873 3.694475 -2.500841
v 4.511873 3.694475 -2.544718
v 4.511873 3.771103 -2.500841
v 4.511873 2.692789 -2.500842
v 4.511873 2.773706 -2.544718
v 1.870435 0.210812 -2.635050
v 3.212052 0.210811 -2.635050
v 1.870435 0.392601 -2.963927
v 3.212052 0.392601 -2.963928
v 1.870435 0.329136 -2.603051
v 3.212052 0.329136 -2.603051
v 1.870435 0.392241 -2.603051
v 3.212052 0.392241 -2.603051
v 3.212052 0.318619 -2.635050
v 1.870435 0.318619 -2.635050
v 0.528818 0.210812 -2.635050
v 0.528818 0.392601 -2.963927
v 0.528818 0.329136 -2.603051
v 0.528818 0.392241 -2.603051
v 0.528818 0.318619 -2.635050
v 3.153590 0.937290 -2.507654
v 4.537094 0.937290 -2.507654
v 3.154440 0.936332 -2.866064
v 4.537802 0.936332 -2.866065
v 3.185353 0.827253 -2.544104
v 3.185353 0.205998 -2.544104
v 3.185353 2.691018 -2.544103
v 3.185353 0.943738 -2.544104
v 3.153589 0.833579 -2.507654
v -3.444163 0.827253 -2.544103
v -3.475926 0.833579 -2.507653
v -3.475926 0.937290 -2.507653
v -3.444163 0.943738 -2.544103
v -3.444163 2.691018 -2.544103
v -3.444163 0.205998 -2.544104
v -2.091714 0.936332 -2.866064
v -3.475075 0.936332 -2.866064
v -2.092421 0.937290 -2.507653
v -2.091714 0.832557 -2.866064
v -3.475075 0.832558 -2.866064
v -2.092421 0.833579 -2.507653
v -2.123474 0.942662 -2.858503
v -3.443352 0.942662 -2.858503
v -2.124149 0.943738 -2.544104
v 3.186164 0.204468 -2.858504
v 3.186164 2.691018 -2.858503
v 4.505367 0.205998 -2.544104
v 4.506041 0.204468 -2.858504
v 4.505367 2.691017 -2.544104
v 4.506042 2.691018 -2.858503
v -0.788526 0.205998 -2.544104
v -0.787715 0.204468 -2.858503
v -0.787715 2.691018 -2.858502
v 0.531488 0.205998 -2.544104
v 0.532162 0.204467 -2.858503
v 0.532162 2.691018 -2.858503
v -0.788526 0.827253 -2.544104
v 0.531488 0.827253 -2.544104
v -0.787715 0.826105 -2.858503
v 0.532162 0.826105 -2.858503
v -0.787715 0.942662 -2.858503
v 0.532162 0.942662 -2.858503
v -0.820289 0.833579 -2.507653
v 0.563215 0.833579 -2.507654
v -0.819439 0.832558 -2.866064
v 0.563922 0.832557 -2.866064
v -0.820289 0.937290 -2.507653
v 0.563215 0.937290 -2.507654
v -0.819439 0.936332 -2.866064
v 0.563922 0.936332 -2.866064
v 2.478651 0.335744 -2.827669
v 3.204774 0.334873 -2.824365
v 2.478651 2.814857 -2.827668
v 3.204774 2.813986 -2.824364
v 1.830186 0.337125 -2.830973
v 1.830187 2.817043 -2.830972
v 0.522455 0.337636 -2.830973
v 0.522455 2.818359 -2.830972
v -2.124658 0.210812 -2.635050
v -0.785785 0.210812 -2.635050
v -2.124658 0.392602 -2.963927
v -0.785785 0.392602 -2.963927
v -2.124658 0.329136 -2.603051
v -0.785785 0.329136 -2.603051
v -2.124658 0.392241 -2.603051
v -0.785785 0.392241 -2.603051
v -0.785785 0.318619 -2.635050
v -2.124658 0.318619 -2.635050
v -2.128084 0.342495 -2.862018
v -0.784287 0.342495 -2.862018
v -2.128084 2.812600 -2.862018
v -0.784287 2.812600 -2.862018
v -2.123474 0.826105 -2.858503
v -3.443352 0.826105 -2.858503
v -2.124149 0.827253 -2.544104
v -2.123474 2.691018 -2.858502
v -2.124149 2.691018 -2.544103
v -2.123475 0.204467 -2.858503
v -2.124149 0.205998 -2.544104
v -3.443352 2.691018 -2.858502
v -3.443352 0.204468 -2.858503
v 4.505367 0.827253 -2.544104
v 3.186164 0.826105 -2.858503
v 4.506042 0.826105 -2.858504
v 4.505367 0.943738 -2.544104
v 3.186164 0.942662 -2.858503
v 4.506042 0.942662 -2.858504
v 4.537094 0.833579 -2.507654
v 3.154440 0.832558 -2.866064
v 4.537802 0.832557 -2.866065
v -0.073885 2.949923 -1.743049
v -0.073885 2.283629 -1.743049
v -0.073885 2.949923 -2.220122
v -0.073885 2.283629 -2.220122
v -0.083151 2.949923 -1.743049
v -0.083151 2.283629 -1.743049
v -0.083151 2.949923 -2.220122
v -0.083151 2.283629 -2.220122
v -0.078707 2.993825 -2.558193
v -0.078707 2.993825 -1.701760
v -0.058157 2.981961 -2.558193
v -0.058157 2.981961 -1.701760
v -0.058157 2.958231 -2.558193
v -0.058157 2.958231 -1.701760
v -0.078707 2.946366 -2.558193
v -0.078707 2.946366 -1.701760
v -0.099258 2.958231 -2.558193
v -0.099258 2.958231 -1.701760
v -0.099258 2.981961 -2.558193
v -0.099258 2.981961 -1.701760
v -0.078707 2.970096 -1.701760
v -1.228290 0.146999 -1.009592
v -1.552866 0.147000 -1.009592
v -1.228290 -0.006811 -1.009592
v -1.552866 -0.006811 -1.009592
v -1.228290 -0.006811 -1.016538
v -1.228290 0.146999 -1.016538
v -1.552866 -0.006811 -1.016538
v -1.552866 0.147000 -1.016538
v 2.254269 0.146999 -1.009592
v 1.929693 0.146999 -1.009592
v 2.254269 -0.006811 -1.009592
v 1.929693 -0.006811 -1.009592
v 2.254269 -0.006811 -1.016538
v 2.254269 0.146999 -1.016538
v 1.929693 -0.006811 -1.016538
v 1.929693 0.146999 -1.016538
v 0.274624 0.057013 0.461225
v 0.274624 0.057013 0.585894
v -0.133220 0.057013 0.120299
v -0.566612 0.057013 0.610301
v -0.566612 0.057013 0.504196
v -0.250415 0.057013 0.143676
v -0.373775 0.057013 0.192240
v -0.493296 0.057013 0.297301
v -0.548322 0.057013 0.411576
v -0.439402 0.057013 0.832962
v -0.317337 0.057013 0.917025
v -0.196669 0.057013 0.953388
v -0.104277 0.057013 0.953516
v -0.020330 0.057013 0.932914
v 0.088442 0.057013 0.885694
v 0.181858 0.057013 0.800276
v 0.248621 0.057013 0.685988
v 0.243503 0.057013 0.373456
v 0.185697 0.057013 0.276315
v 0.088442 0.057013 0.193584
v -0.036198 0.057013 0.139774
v -0.527336 0.057013 0.717481
v 0.274624 0.040675 0.461225
v 0.274624 0.040675 0.585894
v -0.133220 0.040675 0.120299
v -0.566612 0.040675 0.610301
v -0.566612 0.040675 0.504196
v -0.250415 0.040675 0.143676
v -0.373775 0.040675 0.192240
v -0.493296 0.040675 0.297301
v -0.548322 0.040675 0.411576
v -0.439294 0.040675 0.833099
v -0.317337 0.040675 0.917025
v -0.196669 0.040675 0.953388
v -0.104277 0.040675 0.953516
v -0.020330 0.040675 0.932914
v 0.088442 0.040675 0.885694
v 0.181858 0.040675 0.800276
v 0.248621 0.040675 0.685988
v 0.243503 0.040675 0.373456
v 0.185697 0.040675 0.276315
v 0.088442 0.040675 0.193584
v -0.036198 0.040675 0.139774
v -0.527336 0.040675 0.717481
v 0.046742 0.057013 0.888914
v -0.143292 0.057013 0.903586
v -0.794940 2.691018 -2.544103
v -0.794940 0.943738 -2.544104
v 0.525074 2.691017 -2.544104
v 0.525074 0.943738 -2.544104
vn 0.4657 -0.7546 -0.4622
vn 0.5528 -0.7717 -0.3145
vn -0.0000 -1.0000 -0.0000
vn 0.4657 -0.7546 0.4622
vn 0.5669 -0.4931 0.6599
vn 0.6146 -0.7760 0.1420
vn 0.5528 -0.7717 0.3145
vn 0.6146 -0.7760 -0.1420
vn 0.6065 -0.7951 -0.0000
vn 0.5669 -0.4931 -0.6599
vn 0.3938 0.8308 0.3934
vn -0.4544 0.7167 -0.5290
vn 0.5599 0.5115 0.6518
vn 0.3938 0.8308 -0.3934
vn -0.4544 0.7167 0.5290
vn -0.5790 0.6231 0.5259
vn 0.9003 -0.3232 -0.2916
vn 0.9989 0.0466 0.0052
vn 0.9088 0.2990 -0.2911
vn 0.9959 0.0906 -0.0030
vn 0.9130 -0.2914 0.2856
vn 0.9068 0.2942 0.3020
vn 0.7195 0.0447 0.6930
vn 0.5929 -0.5409 0.5965
vn 0.6811 -0.0770 0.7282
vn 0.3752 -0.8524 0.3642
vn 0.5518 -0.5081 -0.6614
vn 0.7196 0.0447 0.6930
vn 0.5503 0.5081 0.6626
vn 0.6798 -0.0780 0.7292
vn 0.7045 -0.0570 0.7074
vn 0.6997 0.0077 0.7144
vn 0.5935 0.5408 0.5961
vn 0.3803 0.8507 0.3629
vn 0.5511 0.5072 -0.6625
vn 0.5843 0.6462 -0.4910
vn 0.7191 -0.0588 0.6925
vn 0.5933 0.5440 0.5933
vn 0.3642 0.8533 0.3732
vn 0.7203 -0.0618 0.6909
vn 0.5497 -0.5062 0.6645
vn 0.5808 -0.6365 0.5076
vn 0.5511 0.5083 -0.6618
vn 0.5869 0.6540 -0.4773
vn 0.6999 0.0071 0.7142
vn 0.5497 -0.5073 0.6637
vn 0.5837 -0.6444 0.4940
vn -0.0000 -0.7924 0.6100
vn -0.0000 -0.0000 1.0000
vn -0.6862 -0.3962 0.6100
vn -0.6862 0.3962 0.6100
vn 0.6862 -0.3962 0.6100
vn 0.6862 0.3962 0.6100
vn 0.9883 -0.1525 -0.0000
vn 0.9772 -0.0000 0.2123
vn 0.9640 -0.1502 0.2192
vn -0.0000 0.7068 0.7075
vn -0.0000 1.0000 0.0010
vn -0.0000 1.0000 -0.0000
vn 0.7071 -0.7071 -0.0000
vn -0.0001 0.7073 0.7069
vn -0.0000 0.7071 0.7071
vn 0.0007 0.7067 0.7076
vn 0.8833 -0.4688 -0.0000
vn 0.8344 0.5512 -0.0000
vn 0.5626 -0.5630 -0.6054
vn 0.5787 0.5859 0.5673
vn 0.5947 -0.5672 0.5698
vn 1.0000 -0.0000 -0.0000
vn 0.5681 -0.5882 -0.5755
vn -0.0243 -0.6989 0.7148
vn -0.0243 -0.6989 -0.7148
vn 0.9966 0.0818 -0.0016
vn -0.0017 0.7011 0.7131
vn -0.0022 -0.0149 0.9999
vn -0.0022 -0.0158 0.9999
vn -0.0000 -0.5864 0.8100
vn 0.9436 0.3311 0.0033
vn 0.9134 0.4070 -0.0034
vn 0.9134 0.4070 0.0033
vn 1.0000 -0.0000 0.0021
vn 0.7063 -0.0000 0.7079
vn -0.0003 1.0000 -0.0000
vn -0.0018 0.7023 0.7119
vn 0.0027 -0.7047 0.7095
vn -0.0018 0.7066 0.7076
vn -0.0021 -0.7067 0.7075
vn 0.6516 0.0007 0.7585
vn 0.7182 0.1040 0.6880
vn 0.7177 -0.1033 0.6887
vn 0.5808 0.5732 0.5780
vn 0.0094 0.7100 0.7041
vn -0.0000 -0.7071 0.7071
vn -0.8660 -0.0000 0.5000
vn -0.5773 -0.4582 0.6758
vn 0.5774 0.6758 0.4582
vn -0.5774 0.6758 0.4582
vn -0.8660 -0.0000 -0.5000
vn -0.0000 -0.0000 -1.0000
vn 0.8660 -0.0000 0.5000
vn 0.5773 -0.5774 0.5774
vn 0.7071 0.7071 -0.0000
vn 0.5774 0.5773 0.5774
vn 0.6472 -0.0000 -0.7623
vn 0.7317 -0.0000 -0.6817
vn 0.9883 0.1525 -0.0000
vn 0.8643 -0.1343 0.4847
vn 0.7317 -0.0000 0.6817
vn 0.8805 -0.0000 0.4740
vn 0.4969 0.8605 0.1123
vn 0.6476 -0.0000 0.7620
vn 0.7326 -0.0000 0.6806
vn 0.4552 0.8528 -0.2561
vn 0.8805 -0.0000 -0.4740
vn 0.4969 0.8605 -0.1123
vn 0.9772 -0.0000 -0.2123
vn 0.8643 -0.1343 -0.4847
vn 0.7177 -0.1032 -0.6887
vn 0.9640 -0.1502 -0.2192
vn 0.6472 -0.0000 0.7623
vn 0.9919 0.1269 -0.0011
vn 0.8940 0.4481 0.0004
vn 0.8775 0.4795 -0.0017
vn 0.4677 0.8839 -0.0000
vn -0.7103 -0.7038 -0.0043
vn -0.5738 0.5726 0.5855
vn -0.7096 0.7042 0.0233
vn 0.6516 0.0007 -0.7585
vn -0.0009 -0.7070 0.7072
vn -0.0002 -0.9990 0.0453
vn -0.0003 -1.0000 -0.0017
vn 0.9640 0.1502 0.2192
vn 0.6516 0.0076 -0.7585
vn 0.9640 0.1502 -0.2192
vn 0.8643 0.1343 -0.4847
vn 0.7062 -0.0000 0.7080
vn 0.7073 -0.0000 0.7069
vn 0.7074 -0.0000 0.7068
vn 0.8660 0.5000 -0.0000
vn 0.7326 -0.0000 -0.6806
vn 0.8643 0.1343 0.4847
vn -0.6937 0.6138 0.3768
vn 0.6476 -0.0000 -0.7620
vn -0.5790 0.6231 -0.5259
vn -0.8751 -0.0000 -0.4839
vn -0.7341 -0.0000 -0.6790
vn -0.7738 0.6107 -0.1680
vn -1.0000 -0.0000 -0.0000
vn -0.9759 -0.0000 -0.2184
vn -0.7738 0.6107 0.1680
vn -0.8751 -0.0000 0.4839
vn -0.9759 -0.0000 0.2184
vn 0.5773 0.5773 0.5774
vn -0.5773 -0.5773 0.5774
vn 0.5774 -0.5773 0.5774
vn -0.7071 0.7071 -0.0000
vn -0.5773 0.5774 0.5774
vn 0.8660 -0.0000 -0.5000
vn -0.8096 0.5870 -0.0000
vn 0.4552 0.8528 0.2561
vn -0.6937 0.6138 -0.3768
vn 0.7182 0.1040 -0.6880
vn 0.5599 0.5115 -0.6518
vn 0.6991 -0.0000 0.7150
vn 0.6989 -0.0000 0.7152
vn 1.0000 -0.0000 -0.0021
vn 0.7035 0.0568 0.7084
vn 0.9578 0.2873 0.0033
vn 0.9436 0.3311 -0.0034
vn 0.5773 -0.5773 -0.5774
vn -0.5773 0.5773 -0.5774
vn 0.5774 0.5773 -0.5774
vn -0.0000 0.7015 0.7127
vn -0.0000 -0.0158 0.9999
vn -0.5774 -0.5774 0.5774
vn 0.7071 0.6944 -0.1332
vn 0.5774 -0.4582 0.6758
vn 0.7071 -0.6944 0.1332
vn -0.5774 -0.5773 -0.5774
vn 0.9969 0.0784 0.0024
vn 0.9126 0.4088 0.0045
vn 0.0025 0.6853 0.7283
vn 1.0000 0.0009 0.0029
vn -0.0000 0.7924 0.6100
vn 1.0000 0.0009 -0.0028
vn -0.0000 -1.0000 -0.0031
vn 0.0020 -0.7125 0.7017
vn 0.0011 -0.9999 -0.0123
vn -0.0003 -0.7069 0.7073
vn -0.0042 -0.7080 0.7062
vn -0.0005 -0.7074 0.7068
vn 0.9134 0.4070 -0.0000
vn 0.9436 0.3311 -0.0000
vn 1.0000 -0.0000 -0.0032
vn 0.9578 0.2873 -0.0034
vn 0.5808 0.5732 -0.5780
vn 0.0094 0.7100 -0.7041
vn 1.0000 -0.0000 0.0046
vn 0.8660 -0.5000 -0.0000
vn 0.9134 0.4071 -0.0034
vn 0.8987 0.4385 -0.0033
vn -0.0048 -0.0000 1.0000
vn -0.0025 -0.0000 1.0000
vn 1.0000 -0.0000 0.0032
vn -0.0011 0.7072 0.7071
vn 0.0004 -0.6815 0.7318
vn 0.0015 0.6837 0.7298
vn 0.9134 0.4071 -0.0000
vn 0.0003 1.0000 -0.0000
vn 0.0017 0.7011 0.7131
vn 0.0021 -0.0158 0.9999
vn -0.0038 0.7081 0.7061
vn -0.7341 -0.0000 0.6790
vn 0.7034 0.7108 0.0077
vn 0.5796 0.5723 0.5801
vn 0.0005 -1.0000 -0.0089
vn 0.7050 -0.7092 -0.0065
vn 0.5797 -0.5770 0.5754
vn 0.0005 -1.0000 -0.0073
vn -0.0000 -1.0000 -0.0093
vn -0.7071 -0.7071 -0.0000
vn -0.6516 -0.0000 -0.7585
vn -0.7071 0.6944 -0.1332
vn -0.6516 -0.0000 0.7585
vn 0.0003 -0.7069 0.7073
vn -0.8660 -0.5000 -0.0000
vn -0.8660 0.5000 -0.0000
vn -0.0019 -0.7070 0.7072
vn -0.0011 -1.0000 -0.0000
vn 0.9578 0.2873 -0.0000
vn 0.0022 -0.0149 0.9999
vn 0.0003 -0.7073 0.7069
vn 0.0012 -0.7071 0.7071
vn 0.0002 -0.0000 1.0000
vn -0.0002 -0.0000 1.0000
vn -0.0046 -0.0000 1.0000
vn 0.0018 0.7023 0.7119
vn -0.5775 -0.5793 0.5752
vn 0.9010 0.4339 -0.0000
vn 0.9969 0.0792 -0.0000
vn -0.0015 0.7069 0.7073
vn 0.5899 0.6431 0.4882
vn 0.7073 0.0001 0.7069
vn 1.0000 -0.0000 0.0026
vn 0.0004 -0.0000 1.0000
vn -0.5774 0.5773 0.5774
vn 0.6801 0.0767 0.7291
vn 0.5905 -0.6449 -0.4851
vn 0.6703 0.1627 0.7241
vn 0.9134 0.4071 0.0033
vn 0.6954 0.1430 0.7042
vn -0.7071 -0.6944 0.1332
vn 0.5681 -0.5882 0.5755
vn 0.8999 0.4360 -0.0000
vn 0.9997 -0.0000 0.0225
vn 0.9997 -0.0000 0.0230
vn 0.5774 0.5774 0.5774
vn 0.5774 -0.5774 0.5774
vn -0.5774 -0.5774 -0.5774
vn 0.5774 0.5774 -0.5774
vn 0.5774 -0.5774 -0.5774
vn -0.5774 0.5774 0.5774
vn -0.5774 0.5774 -0.5774
vn -0.3198 0.6740 0.6660
vn -0.5105 0.6738 0.5342
vn -0.6893 0.0014 0.7245
vn -0.6471 0.6750 0.3544
vn -0.7311 0.6698 0.1297
vn -0.9846 -0.0000 0.1747
vn -0.2048 0.6876 -0.6966
vn 0.0004 0.6655 -0.7464
vn 0.0006 -0.0000 -1.0000
vn 0.3894 0.6752 -0.6264
vn 0.5657 0.6721 -0.4778
vn 0.7640 -0.0000 -0.6453
vn -0.1465 -0.0000 0.9892
vn -0.1080 0.6759 0.7291
vn 0.6589 0.6857 -0.3092
vn 0.9053 -0.0000 -0.4248
vn -0.3867 0.6703 -0.6334
vn -0.2821 -0.0000 -0.9594
vn 0.2174 0.6843 -0.6960
vn 0.5280 -0.0000 -0.8493
vn 0.1194 -0.0000 0.9929
vn -0.5950 0.6649 -0.4515
vn -0.5210 -0.0000 -0.8535
vn 0.2982 -0.0000 -0.9545
vn 0.2316 0.6886 0.6871
vn 0.0874 0.6809 0.7271
vn 0.7309 0.6709 -0.1257
vn 0.9855 -0.0000 -0.1695
vn -0.6958 0.6797 -0.2320
vn -0.7966 -0.0000 -0.6046
vn 0.5440 -0.0000 0.8391
vn 0.4029 0.6718 0.6215
vn -0.7243 0.6859 -0.0708
vn -0.9486 -0.0000 -0.3163
vn -0.8771 -0.0000 0.4803
vn 0.7276 0.6797 0.0929
vn 0.9919 -0.0000 0.1267
vn 0.5741 0.6749 0.4637
vn -0.9953 -0.0000 -0.0973
vn 0.6798 0.6776 0.2806
vn 0.7780 -0.0000 0.6283
vn 0.9244 -0.0000 0.3815
vn -0.4329 -0.0000 0.9014
vn 0.3194 -0.0000 0.9476
vn 0.6516 0.0076 0.7585
vn -0.0000 -1.0000 -0.0047
vt 0.491354 0.073418
vt 0.501828 0.065753
vt 0.522778 0.085409
vt 0.554202 0.073418
vt 0.564677 0.085611
vt 0.533253 0.061587
vt 0.543728 0.065753
vt 0.512303 0.061587
vt 0.522778 0.060938
vt 0.480879 0.085611
vt 0.491654 0.194946
vt 0.481134 0.196916
vt 0.480952 0.195013
vt 0.553620 0.194946
vt 0.564139 0.196916
vt 0.553485 0.197015
vt 0.364000 0.322100
vt 0.347400 0.131800
vt 0.363900 0.165600
vt 0.479300 0.130800
vt 0.462900 0.321400
vt 0.462800 0.164800
vt 0.539445 0.697029
vt 0.738928 0.702489
vt 0.534758 0.702489
vt 0.750460 0.707049
vt 0.795395 0.711571
vt 0.745380 0.711571
vt 0.751317 0.706995
vt 0.794575 0.711399
vt 0.746398 0.711327
vt 0.539908 0.711019
vt 0.738126 0.705591
vt 0.733474 0.711019
vt 0.790720 0.706772
vt 0.745780 0.711302
vt 0.746847 0.706785
vt 0.789703 0.707213
vt 0.746456 0.711782
vt 0.747442 0.707427
vt 0.583429 0.137940
vt 0.601030 0.137940
vt 0.592230 0.153183
vt 0.609831 0.153183
vt 0.592230 0.122697
vt 0.609831 0.122697
vt 0.523094 0.095502
vt 0.533453 0.092002
vt 0.533441 0.095502
vt 0.000785 0.335291
vt 0.215111 0.402936
vt 0.000717 0.402936
vt 0.859864 0.200123
vt 0.650497 0.000517
vt 0.859864 0.000517
vt 0.481732 0.201717
vt 0.612476 0.213170
vt 0.481732 0.213510
vt 0.640252 0.417044
vt 0.430750 0.410061
vt 0.640252 0.410061
vt 0.744051 0.376867
vt 0.614070 0.219931
vt 0.613918 0.376655
vt 0.363500 0.323300
vt 0.462700 0.167800
vt 0.462500 0.322600
vt 0.648391 0.199028
vt 0.565808 0.088928
vt 0.648391 0.088928
vt 0.650497 0.200123
vt 0.190660 0.135929
vt 0.022404 0.113587
vt 0.190667 0.113645
vt 0.612683 0.401756
vt 0.480440 0.386170
vt 0.480431 0.401819
vt 0.613176 0.386303
vt 0.744516 0.401942
vt 0.744531 0.386270
vt 0.216512 0.132104
vt 0.347185 0.402194
vt 0.216658 0.402374
vt 0.480539 0.214033
vt 0.612797 0.201451
vt 0.480546 0.201514
vt 0.972058 0.436949
vt 0.797079 0.400962
vt 0.972056 0.401317
vt 0.215111 0.294499
vt 0.000790 0.323686
vt 0.000717 0.294563
vt 0.481732 0.201723
vt 0.612476 0.213170
vt 0.481732 0.213510
vt 0.612786 0.220230
vt 0.480535 0.220292
vt 0.215983 0.116506
vt 0.347724 0.117824
vt 0.215982 0.117532
vt 0.745894 0.711207
vt 0.795478 0.999441
vt 0.745686 0.999441
vt 0.796756 0.702253
vt 0.797081 0.436594
vt 0.482065 0.219851
vt 0.610560 0.376217
vt 0.610649 0.219729
vt 0.000421 0.586316
vt 0.428444 0.417638
vt 0.428341 0.586739
vt 0.482068 0.376339
vt 0.564482 0.095502
vt 0.553796 0.193501
vt 0.554135 0.095502
vt 0.215189 0.325579
vt 0.000795 0.325627
vt 0.612790 0.213970
vt 0.364700 0.156100
vt 0.459700 0.165000
vt 0.364700 0.165000
vt 0.000789 0.135863
vt 0.022350 0.267466
vt 0.000744 0.267459
vt 0.429790 0.405361
vt 0.640915 0.418459
vt 0.429614 0.418216
vt 0.591972 0.088969
vt 0.584434 0.199346
vt 0.584434 0.088969
vt 0.745119 0.238229
vt 0.868622 0.400177
vt 0.745188 0.400108
vt 0.622124 0.088969
vt 0.614586 0.199346
vt 0.614586 0.088969
vt 0.599510 0.088969
vt 0.591972 0.199346
vt 0.744692 0.220143
vt 0.613343 0.213907
vt 0.613337 0.220176
vt 0.768373 0.585593
vt 0.774024 0.409692
vt 0.768373 0.409692
vt 0.481719 0.092002
vt 0.492078 0.088502
vt 0.492066 0.092002
vt 0.522755 0.193501
vt 0.533090 0.197001
vt 0.522743 0.197001
vt 0.543788 0.095502
vt 0.554147 0.092002
vt 0.533078 0.200501
vt 0.543437 0.197001
vt 0.543425 0.200501
vt 0.522731 0.200501
vt 0.533465 0.088503
vt 0.543800 0.092002
vt 0.564131 0.197001
vt 0.553784 0.197001
vt 0.502425 0.088502
vt 0.502413 0.092002
vt 0.512771 0.088502
vt 0.512759 0.092002
vt 0.512396 0.197001
vt 0.512384 0.200501
vt 0.502400 0.095502
vt 0.492054 0.095502
vt 0.512747 0.095502
vt 0.553772 0.200501
vt 0.564119 0.200501
vt 0.564494 0.092002
vt 0.347764 0.131138
vt 0.215979 0.122662
vt 0.347740 0.122944
vt 0.523118 0.088503
vt 0.523106 0.092002
vt 0.869695 0.303469
vt 0.882271 0.388189
vt 0.869695 0.388189
vt 0.481707 0.095502
vt 0.001287 0.404067
vt 0.426339 0.412490
vt 0.001287 0.412490
vt 0.533102 0.193501
vt 0.481368 0.193501
vt 0.512408 0.193501
vt 0.502062 0.193501
vt 0.533265 0.711516
vt 0.745342 0.999637
vt 0.533805 0.999799
vt 0.744676 0.695799
vt 0.533150 0.599349
vt 0.744687 0.599187
vt 0.607048 0.199346
vt 0.607048 0.088969
vt 0.613355 0.201369
vt 0.744698 0.213874
vt 0.744710 0.201336
vt 0.491703 0.197001
vt 0.502050 0.197001
vt 0.554159 0.088503
vt 0.543449 0.193501
vt 0.502037 0.200501
vt 0.543072 0.197076
vt 0.532860 0.194882
vt 0.543162 0.194904
vt 0.491691 0.200501
vt 0.481356 0.197001
vt 0.481344 0.200501
vt 0.550518 0.196257
vt 0.540072 0.193303
vt 0.550518 0.193303
vt 0.531000 0.196257
vt 0.522555 0.193303
vt 0.531000 0.193303
vt 0.514109 0.196257
vt 0.505037 0.193303
vt 0.514109 0.193303
vt 0.066640 0.011953
vt 0.212353 0.014496
vt 0.212345 0.011953
vt 0.000266 0.601254
vt 0.216990 0.999473
vt -0.000146 0.999061
vt 0.767387 0.410800
vt 0.648631 0.405397
vt 0.648631 0.410800
vt 0.629662 0.088969
vt 0.622123 0.199346
vt 0.599510 0.199346
vt 0.491789 0.197015
vt 0.512459 0.197110
vt 0.522637 0.194878
vt 0.522637 0.197115
vt 0.502111 0.194904
vt 0.502201 0.197076
vt 0.512414 0.194882
vt 0.491715 0.193501
vt 0.564321 0.195013
vt 0.347039 0.131924
vt 0.533139 0.695961
vt 0.744802 0.711354
vt 0.215984 0.114454
vt 0.347721 0.116799
vt 0.481923 0.201863
vt 0.613161 0.213305
vt 0.481923 0.212983
vt 0.212353 0.017047
vt 0.066640 0.014504
vt 0.066648 0.017047
vt 0.430114 0.586910
vt 0.642628 0.403360
vt 0.775941 0.592699
vt 0.642725 0.592796
vt 0.860071 0.248875
vt 0.868259 0.390255
vt 0.860071 0.390127
vt 0.612692 0.386107
vt 0.480446 0.376781
vt 0.210188 0.012142
vt 0.208182 0.105768
vt 0.210188 0.105768
vt 0.755383 0.247818
vt 0.859016 0.238883
vt 0.858759 0.247818
vt 0.481732 0.201721
vt 0.612476 0.213170
vt 0.481732 0.213510
vt 0.479686 0.131386
vt 0.347900 0.122910
vt 0.347895 0.131119
vt 0.353310 0.165757
vt 0.362121 0.321926
vt 0.352721 0.321926
vt 0.430750 0.417044
vt 0.472169 0.321021
vt 0.462669 0.164841
vt 0.462669 0.321021
vt 0.532815 0.197110
vt 0.347500 0.402600
vt 0.618631 0.137940
vt 0.479400 0.401600
vt 0.640206 0.402898
vt 0.430703 0.409881
vt 0.430703 0.402898
vt 0.640206 0.409881
vt 0.429700 0.598267
vt 0.639203 0.591284
vt 0.639203 0.598267
vt 0.347904 0.116754
vt 0.479646 0.118072
vt 0.479643 0.117048
vt 0.478400 0.000518
vt 0.347906 0.114702
vt 0.478743 0.115223
vt 0.022342 0.291873
vt 0.190614 0.267525
vt 0.190606 0.291931
vt 0.479661 0.123193
vt 0.347904 0.117780
vt 0.532332 0.999771
vt 0.429409 0.600139
vt 0.532398 0.600279
vt 0.347985 -0.000214
vt 0.428929 0.416911
vt 0.000039 0.405264
vt 0.428929 0.404717
vt 0.430052 0.588110
vt 0.641008 0.598088
vt 0.429863 0.598188
vt 0.429700 0.591284
vt 0.641101 0.405627
vt 0.971733 0.702607
vt 0.505037 0.196257
vt 0.494592 0.193303
vt 0.939939 0.399399
vt 0.939939 0.388189
vt 0.999067 0.000411
vt 0.955654 0.376372
vt 0.955672 0.000555
vt 0.951422 0.303469
vt 0.939939 0.303469
vt 0.999114 0.188169
vt 0.648361 0.583585
vt 0.765531 0.588916
vt 0.765531 0.583585
vt 0.647865 0.415138
vt 0.642669 0.576907
vt 0.647865 0.576907
vt 0.563453 0.196257
vt 0.563453 0.193303
vt 0.481732 0.201719
vt 0.481732 0.213510
vt 0.859656 0.238936
vt 0.755665 0.248075
vt 0.755614 0.238731
vt 0.494592 0.196257
vt 0.481656 0.193303
vt 0.000904 0.589380
vt 0.425957 0.598754
vt 0.000901 0.598608
vt 0.796355 1.000445
vt 0.971791 0.739000
vt 0.972003 1.001498
vt 0.479637 0.115000
vt 0.796141 0.703031
vt 0.971789 0.704083
vt 0.000039 0.588171
vt 0.428929 0.599818
vt 0.000039 0.600364
vt 0.218175 0.999358
vt 0.339535 0.600762
vt 0.218109 0.601485
vt 0.939939 0.290345
vt 0.882271 0.303469
vt 0.882271 0.290346
vt 0.000901 0.409205
vt 0.425953 0.417629
vt 0.000901 0.417629
vt 0.482037 0.219592
vt 0.610443 0.376217
vt 0.610792 0.219729
vt 0.641269 0.586833
vt 0.427729 0.999800
vt 0.217701 0.600402
vt 0.428440 0.600211
vt 0.212027 0.135936
vt 0.795644 0.710246
vt 0.795686 0.711207
vt 0.795609 0.695655
vt 0.641207 0.588034
vt 0.795803 0.695829
vt 0.746140 0.599213
vt 0.795932 0.599213
vt 0.543812 0.088503
vt 0.612697 0.376718
vt 0.066435 0.012370
vt 0.212468 0.106298
vt 0.066550 0.106547
vt 0.210194 0.105768
vt 0.212200 0.012142
vt 0.210194 0.012142
vt 0.215179 0.335249
vt 0.745818 0.695655
vt 0.795868 0.711370
vt 0.734246 0.697029
vt 0.794333 0.707049
vt 0.793578 0.707043
vt 0.746012 0.695829
vt 0.535250 0.705591
vt 0.795796 0.711303
vt 0.746076 0.711370
vt 0.212353 0.012121
vt 0.613185 0.376899
vt 0.744540 0.376867
vt 0.794632 0.711535
vt 0.540072 0.196257
vt 0.522555 0.196257
vt 0.360500 0.331500
vt 0.460000 0.323000
vt 0.460000 0.332000
vt 0.745307 0.388569
vt 0.754328 0.249546
vt 0.754328 0.388313
vt 0.022396 0.135871
vt 0.347372 0.000046
vt 0.216063 -0.000462
vt 0.255158 0.034324
vt 0.305043 0.009877
vt 0.255148 0.009691
vt 0.305088 0.034493
vt 0.893504 0.282231
vt 0.905674 0.285956
vt 0.923453 0.283845
vt 0.887759 0.207857
vt 0.875714 0.218645
vt 0.950017 0.226421
vt 0.934368 0.207970
vt 0.900195 0.202866
vt 0.944180 0.216455
vt 0.881225 0.273636
vt 0.950556 0.258492
vt 0.953170 0.248219
vt 0.914990 0.285964
vt 0.881200 0.273625
vt 0.872313 0.261765
vt 0.868346 0.252716
vt 0.912010 0.200461
vt 0.893515 0.282238
vt 0.921795 0.202455
vt 0.953161 0.235426
vt 0.870174 0.230374
vt 0.934419 0.278995
vt 0.868337 0.239879
vt 0.943834 0.270225
vt 0.868345 0.250768
vt 0.868337 0.239906
vt 0.911056 0.280847
vt 0.930214 0.279327
vt 0.612476 0.201377
vt 0.744203 0.220143
vt 0.363800 0.168500
vt 0.565808 0.199028
vt 0.613161 0.401975
vt 0.215184 0.323637
vt 0.612476 0.201382
vt 0.000370 0.418403
vt 0.564143 0.193501
vt 0.459700 0.156100
vt 0.868553 0.238297
vt 0.774024 0.585593
vt 0.481731 0.088502
vt 0.215973 0.130870
vt 0.426339 0.404064
vt 0.564506 0.088503
vt 0.066648 0.014496
vt 0.217402 0.601666
vt 0.767387 0.405397
vt 0.629662 0.199346
vt 0.347715 0.114751
vt 0.613161 0.201586
vt 0.212345 0.014504
vt 0.775844 0.403263
vt 0.868260 0.249004
vt 0.208182 0.012142
vt 0.755639 0.238883
vt 0.612476 0.201381
vt 0.362710 0.165757
vt 0.472169 0.164841
vt 0.429343 0.999631
vt 0.000039 0.417457
vt 0.882271 0.399399
vt 0.999162 0.375928
vt 0.951422 0.388189
vt 0.955663 0.188463
vt 0.648361 0.588916
vt 0.642669 0.415138
vt 0.612476 0.201379
vt 0.859708 0.248280
vt 0.481656 0.196257
vt 0.425960 0.589530
vt 0.796143 0.737947
vt 0.428929 0.587624
vt 0.339600 0.999714
vt 0.425953 0.409203
vt 0.482040 0.376080
vt 0.218056 0.999244
vt 0.211982 0.267532
vt 0.212200 0.105768
vt 0.360500 0.323000
vt 0.745307 0.249802
s 1
usemtl Material.001
f 90/1/1 82/2/2 128/3/3
f 89/4/4 75/5/5 128/3/3
f 86/6/6 81/7/7 128/3/3
f 85/8/8 79/9/9 128/3/3
f 82/2/2 85/8/8 128/3/3
f 81/7/7 89/4/4 128/3/3
f 79/9/9 86/6/6 128/3/3
f 77/10/10 90/1/1 128/3/3
f 88/11/11 146/12/12 74/13/13
f 91/14/14 145/15/15 138/16/16
f 190/17/17 199/18/18 191/19/19
f 200/20/20 195/21/21 196/22/22
f 332/23/23 415/24/24 336/25/25
f 409/26/26 417/27/27 415/28/24
f 332/29/28 416/30/29 336/31/30
f 337/29/28 347/30/29 338/31/30
f 402/26/26 346/27/27 348/28/24
f 337/23/23 348/24/24 338/25/31
f 340/32/32 345/33/33 351/34/34
f 351/35/34 343/36/35 349/37/36
f 412/35/34 331/36/35 414/37/36
f 502/32/37 375/33/38 504/34/39
f 502/38/40 376/39/41 368/40/42
f 504/35/39 377/36/43 369/37/44
f 340/38/45 344/39/46 350/40/47
f 364/23/23 371/24/24 370/25/31
f 365/26/26 373/27/27 371/28/24
f 364/29/28 372/30/29 370/31/30
f 433/41/48 438/42/49 435/43/50
f 437/44/51 435/43/50 438/42/49
f 431/45/52 429/46/53 438/42/49
f 335/32/32 329/33/33 412/34/34
f 335/38/45 330/39/46 413/40/47
f 111/47/54 104/48/55 115/49/56
f 319/50/57 316/51/58 315/52/58
f 21/53/59 6/54/59 9/55/59
f 156/56/60 185/57/3 187/58/3
f 289/59/61 272/60/62 284/61/63
f 178/62/64 175/63/65 181/64/64
f 189/65/66 193/66/67 194/67/68
f 60/68/69 59/69/69 61/70/69
f 21/71/59 11/55/59 22/53/59
f 53/72/70 54/73/71 55/74/72
f 153/75/69 164/76/64 155/77/69
f 163/78/64 154/79/69 160/80/64
f 206/81/73 211/82/69 210/83/69
f 167/84/65 151/85/60 156/86/60
f 43/87/74 38/88/75 41/89/76
f 313/90/49 327/91/77 323/92/49
f 150/93/60 183/94/3 184/95/3
f 171/96/65 165/84/65 174/97/65
f 227/98/78 235/99/79 237/100/80
f 351/101/34 403/102/81 404/103/82
f 175/96/65 167/84/65 176/97/65
f 43/87/74 39/104/83 40/105/84
f 173/106/65 180/107/64 174/108/65
f 293/109/85 300/110/86 303/111/87
f 11/54/59 23/53/59 22/71/59
f 178/112/64 173/108/65 172/106/65
f 118/113/88 126/114/89 116/115/90
f 327/91/77 317/116/77 325/117/77
f 10/53/59 6/54/59 8/71/59
f 169/84/65 173/96/65 170/118/65
f 193/119/67 191/120/19 196/121/22
f 54/122/71 50/123/91 56/124/92
f 281/125/93 272/126/62 273/127/62
f 68/128/49 71/129/94 70/130/94
f 255/131/95 258/132/96 257/133/97
f 72/134/98 63/135/99 62/136/99
f 66/137/100 69/138/49 68/128/49
f 172/139/65 166/140/65 175/141/65
f 248/142/101 254/143/102 250/144/103
f 109/145/104 91/146/14 102/147/105
f 121/148/106 94/149/55 98/150/69
f 112/151/107 103/152/108 116/115/90
f 86/153/6 97/154/109 81/155/7
f 79/156/9 94/149/55 86/153/6
f 87/157/110 107/158/109 104/48/55
f 126/114/89 100/159/111 93/160/112
f 102/147/105 83/161/113 106/162/114
f 106/162/114 84/163/115 105/164/116
f 95/165/116 79/156/9 85/166/8
f 115/49/56 107/158/109 112/151/107
f 102/147/105 113/167/117 117/168/118
f 105/164/116 111/47/54 114/169/119
f 89/170/4 100/159/111 75/171/5
f 116/115/90 101/172/120 118/113/88
f 208/173/121 220/174/122 219/175/123
f 78/176/124 104/48/55 108/177/69
f 106/162/114 114/169/119 113/167/117
f 81/155/7 93/160/112 89/170/4
f 245/178/125 241/179/126 246/180/127
f 109/145/104 117/168/118 110/181/128
f 299/182/129 290/183/130 297/184/131
f 112/151/107 125/185/132 115/49/56
f 117/168/118 120/186/133 110/181/128
f 113/167/117 124/187/134 123/188/135
f 335/189/32 356/190/82 334/191/136
f 115/49/56 121/148/106 111/47/54
f 365/192/26 358/193/137 361/194/138
f 426/136/59 429/195/53 428/196/139
f 151/197/60 169/198/65 152/199/60
f 92/200/140 123/188/135 96/201/114
f 88/202/11 101/172/120 103/152/108
f 95/165/116 121/148/106 98/150/69
f 122/203/141 93/160/112 97/154/109
f 96/201/114 124/187/134 95/165/116
f 105/164/116 78/176/124 108/177/69
f 96/201/114 85/166/8 82/204/2
f 142/205/142 84/206/115 83/207/113
f 92/200/140 82/204/2 90/208/1
f 99/209/143 90/208/1 77/210/10
f 139/211/144 132/212/145 136/213/146
f 140/214/147 131/215/148 135/216/149
f 141/217/150 133/218/151 134/219/152
f 418/220/153 423/221/154 419/222/155
f 396/223/49 399/224/49 398/225/49
f 266/226/103 269/227/156 265/228/157
f 70/229/94 73/230/98 72/134/98
f 64/196/158 67/231/100 66/137/100
f 88/11/11 139/232/144 146/12/12
f 140/233/147 78/234/124 144/235/159
f 138/16/16 83/207/113 91/14/14
f 139/232/144 80/236/160 143/237/161
f 143/237/161 87/238/110 140/233/147
f 99/209/143 127/239/162 92/200/140
f 196/22/22 199/18/18 200/20/20
f 91/14/14 76/240/163 145/15/15
f 502/189/37 503/190/164 501/191/165
f 15/54/59 18/53/59 17/55/59
f 206/241/73 209/83/166 208/81/121
f 336/242/25 329/243/33 328/189/167
f 168/118/65 150/86/60 165/84/65
f 215/244/168 231/245/169 227/98/78
f 402/192/26 342/193/137 406/194/138
f 158/246/60 184/247/3 188/248/3
f 421/249/170 424/250/171 420/251/172
f 16/53/59 13/54/59 14/71/59
f 15/54/59 25/53/59 24/71/59
f 37/87/173 34/104/59 36/105/173
f 289/126/61 276/252/93 283/127/62
f 62/136/99 65/195/158 64/196/158
f 44/88/174 36/87/173 46/105/173
f 280/125/93 284/126/63 272/127/62
f 263/253/175 266/254/103 265/255/157
f 262/256/176 256/257/177 260/258/178
f 176/106/65 181/107/64 175/108/65
f 113/167/117 127/239/162 117/168/118
f 432/128/3 431/231/52 433/138/48
f 161/259/64 178/260/64 160/76/64
f 174/96/65 170/84/65 173/97/65
f 5/54/59 8/53/59 6/55/59
f 419/261/155 425/262/179 421/263/170
f 159/259/64 180/260/64 162/76/64
f 255/264/95 260/265/178 256/266/177
f 152/267/60 188/268/3 186/269/3
f 9/54/59 12/53/59 11/55/59
f 250/226/103 253/227/156 249/228/157
f 223/270/180 217/271/181 199/272/18
f 165/118/65 158/86/60 170/84/65
f 191/273/19 189/274/66 190/275/17
f 284/60/63 296/59/182 289/276/61
f 194/277/68 196/278/22 195/279/21
f 141/280/150 78/234/124 84/206/115
f 190/17/17 198/281/183 199/18/18
f 427/282/184 438/42/49 429/46/53
f 200/20/20 197/283/185 195/21/21
f 125/185/132 97/154/109 94/149/55
f 281/284/93 1/285/186 280/286/93
f 288/286/187 1/287/186 4/285/188
f 247/253/175 250/254/103 249/255/157
f 301/288/189 309/289/190 308/290/191
f 229/291/78 236/292/192 232/293/193
f 207/294/194 213/295/195 214/296/195
f 56/297/92 52/298/196 57/299/197
f 224/83/198 199/241/18 198/82/183
f 237/100/80 219/175/123 220/174/122
f 428/196/139 431/231/52 430/137/199
f 219/300/123 234/301/200 218/271/201
f 380/302/202 382/303/203 378/304/202
f 14/53/59 11/54/59 12/71/59
f 169/84/65 158/85/60 152/86/60
f 212/296/168 201/305/204 215/295/168
f 298/306/205 295/307/206 299/308/129
f 231/293/169 213/295/195 230/291/169
f 274/309/93 278/310/49 279/311/49
f 277/312/93 275/290/93 274/288/93
f 284/127/63 295/313/206 291/126/207
f 238/301/208 218/300/201 234/292/200
f 231/293/169 234/301/200 235/292/79
f 28/314/209 49/105/173 30/87/210
f 314/90/49 322/91/77 313/92/49
f 30/87/210 47/88/174 26/89/211
f 295/286/206 4/287/188 290/285/130
f 199/270/18 220/271/122 200/272/20
f 298/60/205 312/59/212 300/276/86
f 142/315/142 137/316/213 133/218/151
f 244/317/214 241/179/126 242/318/215
f 304/319/216 297/320/131 290/321/130
f 243/322/217 242/318/215 240/323/218
f 3/324/219 1/321/186 2/319/220
f 46/87/173 42/104/83 43/105/74
f 340/189/32 404/190/82 341/191/136
f 247/325/175 252/326/60 248/327/101
f 249/328/157 251/329/221 247/330/175
f 146/331/12 136/213/146 129/332/222
f 151/333/60 186/94/3 185/334/3
f 147/75/69 162/76/64 148/77/69
f 228/291/193 234/292/200 230/293/169
f 258/335/96 261/336/223 257/337/97
f 203/305/69 213/296/195 204/294/194
f 283/126/62 277/252/93 282/127/62
f 409/192/26 333/193/137 354/194/138
f 138/338/16 130/339/224 137/316/213
f 264/142/101 270/143/102 266/144/103
f 293/340/85 301/341/189 292/342/225
f 29/343/209 40/344/84 39/345/83
f 37/87/173 32/88/174 33/89/174
f 434/229/226 437/230/51 436/134/227
f 265/328/157 267/329/221 263/330/175
f 111/47/54 124/187/134 114/169/119
f 311/286/228 297/287/131 306/285/229
f 212/295/168 232/293/193 225/346/230
f 40/344/84 27/347/231 38/348/75
f 285/290/232 276/312/93 286/289/233
f 292/349/225 302/350/234 294/351/235
f 381/352/236 378/353/202 379/354/236
f 219/300/123 206/272/73 208/270/121
f 200/81/20 209/82/166 197/83/185
f 30/105/210 27/89/231 31/87/237
f 243/355/217 239/356/238 245/357/125
f 291/358/207 300/359/86 296/360/182
f 174/361/65 177/362/64 171/363/65
f 263/325/175 268/326/60 264/327/101
f 395/91/77 391/116/77 390/117/77
f 286/252/233 296/126/182 293/364/85
f 206/270/73 221/271/239 205/272/240
f 383/365/203 384/366/49 382/367/203
f 55/368/72 52/298/196 53/72/70
f 417/369/27 414/370/36 331/371/35
f 292/290/225 286/312/233 293/289/85
f 307/126/241 299/125/129 311/313/228
f 287/311/235 292/372/225 294/310/235
f 366/373/242 358/374/243 359/375/244
f 310/310/245 301/309/189 308/372/191
f 80/376/160 103/152/108 107/158/109
f 164/76/64 181/377/64 182/260/64
f 418/378/153 421/379/170 420/380/172
f 420/381/172 422/382/246 418/383/153
f 239/356/238 242/318/215 241/179/126
f 5/54/59 20/53/59 19/71/59
f 162/259/64 179/260/64 161/76/64
f 387/90/49 395/91/77 386/92/49
f 390/117/77 393/384/57 392/50/57
f 343/370/35 348/385/24 346/371/27
f 339/189/247 348/192/24 345/243/33
f 346/369/27 349/370/36 343/371/35
f 372/369/29 368/386/42 376/373/41
f 332/23/23 409/387/26 415/24/24
f 409/26/26 411/388/248 417/27/27
f 332/29/28 410/389/242 416/30/29
f 337/29/28 401/389/242 347/30/29
f 402/26/26 400/388/248 346/27/27
f 337/23/23 402/387/26 348/24/24
f 198/281/183 195/21/21 197/283/185
f 373/369/27 369/370/44 377/371/43
f 374/189/249 371/192/24 375/243/38
f 233/292/250 220/271/122 217/300/181
f 330/386/46 336/390/30 416/373/29
f 340/32/32 339/391/247 345/33/33
f 351/35/34 345/392/33 343/36/35
f 388/52/58 393/384/57 389/51/58
f 367/371/248 361/374/138 362/375/81
f 411/371/248 354/374/138 355/375/81
f 353/102/244 335/393/45 413/386/47
f 401/373/242 342/374/243 408/375/244
f 400/371/248 406/374/138 405/375/81
f 326/50/57 315/51/58 324/52/58
f 357/102/81 412/101/34 414/370/36
f 412/35/34 329/392/33 331/36/35
f 502/32/37 374/391/249 375/33/38
f 376/386/41 370/390/30 372/373/29
f 410/373/242 333/374/243 352/375/244
f 30/105/210 29/314/209 28/104/209
f 422/378/246 425/379/179 423/394/154
f 340/393/45 407/102/244 341/103/136
f 181/395/64 160/80/64 178/396/64
f 502/38/40 374/397/251 376/39/41
f 504/35/39 375/392/38 377/36/43
f 340/38/45 339/397/167 344/39/46
f 377/370/43 371/385/24 373/371/27
f 331/370/35 415/385/24 417/371/27
f 13/54/59 24/53/59 23/71/59
f 416/369/29 413/386/47 330/373/46
f 347/369/29 350/386/47 344/373/46
f 364/23/23 365/387/26 371/24/24
f 365/26/26 367/388/248 373/27/27
f 364/29/28 366/389/242 372/30/29
f 233/292/250 227/291/78 237/301/80
f 344/386/46 338/390/30 347/373/29
f 300/127/86 309/364/190 303/252/87
f 45/104/59 36/87/173 34/314/59
f 143/398/161 135/216/149 132/212/145
f 144/399/159 134/219/152 131/215/148
f 148/75/69 161/76/64 157/77/69
f 325/117/77 319/384/57 326/50/57
f 194/400/68 190/401/17 189/402/66
f 255/403/95 261/404/223 259/405/252
f 52/298/196 51/406/253 53/72/70
f 317/117/77 320/384/57 319/50/57
f 154/77/69 161/259/64 160/76/64
f 233/301/250 226/300/254 236/292/192
f 322/91/77 318/116/77 317/117/77
f 436/134/227 427/135/184 426/136/59
f 207/407/194 215/244/168 201/408/204
f 432/128/3 435/129/50 434/130/226
f 41/88/76 46/87/173 43/105/74
f 216/295/230 230/293/169 213/346/195
f 202/305/204 225/296/230 222/294/69
f 363/102/255 504/101/39 369/370/44
f 335/32/32 328/391/167 329/33/33
f 283/59/62 273/60/62 272/61/62
f 360/102/256 502/393/40 368/386/42
f 122/203/141 116/115/90 126/114/89
f 335/38/45 328/397/167 330/39/46
f 212/346/168 227/291/78 229/293/78
f 275/309/93 287/310/235 278/311/49
f 439/409/257 442/410/175 441/411/258
f 445/410/259 444/409/260 443/411/261
f 440/412/262 445/410/259 442/410/175
f 439/409/257 446/412/263 440/412/262
f 441/411/258 444/409/260 439/409/257
f 442/410/175 443/411/261 441/411/258
f 447/409/257 450/410/175 449/411/258
f 453/410/259 452/409/260 451/411/261
f 448/412/262 453/410/259 450/410/175
f 447/409/257 454/412/263 448/412/262
f 449/411/258 452/409/260 447/409/257
f 450/410/175 451/411/261 449/411/258
f 465/413/59 466/414/59 468/415/59
f 461/416/59 462/417/59 472/418/59
f 474/419/59 460/420/59 461/416/59
f 473/421/59 474/419/59 461/416/59
f 464/422/59 471/423/59 456/424/59
f 468/415/59 466/414/59 467/425/59
f 465/413/264 464/426/265 486/426/266
f 476/427/267 458/428/268 480/428/269
f 460/420/270 457/429/271 479/429/272
f 474/419/273 473/421/274 495/421/275
f 465/430/264 488/414/276 466/414/277
f 473/421/274 472/418/278 494/418/279
f 461/416/280 460/420/270 482/420/281
f 475/431/282 474/419/273 496/419/283
f 466/414/277 488/414/276 489/425/284
f 462/417/285 461/416/280 483/416/286
f 457/429/271 475/431/282 497/431/287
f 468/415/288 467/425/289 489/425/284
f 472/418/278 455/432/290 477/432/291
f 463/433/292 462/417/285 484/417/293
f 468/415/288 491/434/294 469/434/295
f 459/435/296 463/433/292 485/433/297
f 464/422/265 476/427/267 498/427/298
f 455/432/290 456/424/299 478/424/300
f 470/436/301 469/434/295 491/434/294
f 458/437/268 459/438/296 481/438/302
f 471/423/303 470/436/301 492/436/304
f 456/424/299 471/423/303 493/423/305
f 456/424/59 455/432/59 459/435/59
f 463/433/59 472/418/59 462/417/59
f 464/426/59 465/430/59 500/439/59
f 468/415/59 469/434/59 499/440/59
f 470/436/59 500/439/59 499/440/59
f 461/416/59 472/418/59 473/421/59
f 460/420/59 475/431/59 457/429/59
f 475/431/59 460/420/59 474/419/59
f 464/422/59 456/424/59 476/427/59
f 458/437/59 476/427/59 456/424/59
f 471/423/59 464/422/59 470/436/59
f 465/413/264 486/426/266 487/413/306
f 476/427/267 480/428/269 498/427/298
f 460/420/270 479/429/272 482/420/281
f 474/419/273 495/421/275 496/419/283
f 465/430/264 487/430/306 488/414/276
f 473/421/274 494/418/279 495/421/275
f 461/416/280 482/420/281 483/416/286
f 475/431/282 496/419/283 497/431/287
f 466/414/277 489/425/284 467/425/289
f 462/417/285 483/416/286 484/417/293
f 457/429/271 497/431/287 479/429/272
f 468/415/288 489/425/284 490/415/307
f 472/418/278 477/432/291 494/418/279
f 463/433/292 484/417/293 485/433/297
f 468/415/288 490/415/307 491/434/294
f 459/435/296 485/433/297 481/435/302
f 464/422/265 498/427/298 486/422/266
f 455/432/290 478/424/300 477/432/291
f 470/436/301 491/434/294 492/436/304
f 458/437/268 481/438/302 480/437/269
f 471/423/303 492/436/304 493/423/305
f 456/424/299 493/423/305 478/424/300
f 456/424/59 459/435/59 458/437/59
f 472/418/59 459/435/59 455/432/59
f 459/435/59 472/418/59 463/433/59
f 499/440/59 469/434/59 470/436/59
f 499/440/59 500/439/59 468/415/59
f 500/439/59 465/430/59 468/415/59
f 433/41/48 431/45/52 438/42/49
f 111/47/54 108/177/69 104/48/55
f 319/50/57 320/384/57 316/51/58
f 21/53/59 20/71/59 6/54/59
f 156/56/60 151/441/60 185/57/3
f 289/59/61 283/276/62 272/60/62
f 178/62/64 172/442/65 175/63/65
f 189/65/66 192/443/260 193/66/67
f 60/68/69 58/444/69 59/69/69
f 21/71/59 9/54/59 11/55/59
f 53/72/70 51/406/253 54/73/71
f 153/75/69 163/259/64 164/76/64
f 163/78/64 153/445/69 154/79/69
f 206/81/73 205/241/240 211/82/69
f 167/84/65 166/118/65 151/85/60
f 43/87/74 40/105/84 38/88/75
f 313/90/49 322/446/77 327/91/77
f 150/93/60 149/447/60 183/94/3
f 171/96/65 168/118/65 165/84/65
f 227/98/78 231/245/169 235/99/79
f 351/101/34 349/370/36 403/102/81
f 175/96/65 166/118/65 167/84/65
f 43/87/74 42/314/83 39/104/83
f 173/106/65 179/112/64 180/107/64
f 293/109/85 296/448/182 300/110/86
f 11/54/59 13/55/59 23/53/59
f 178/112/64 179/107/64 173/108/65
f 118/113/88 119/449/308 126/114/89
f 327/91/77 322/446/77 317/116/77
f 10/53/59 9/55/59 6/54/59
f 169/84/65 172/97/65 173/96/65
f 193/119/67 192/450/260 191/120/19
f 54/122/71 51/406/253 50/123/91
f 281/125/93 280/313/93 272/126/62
f 68/128/49 69/138/49 71/129/94
f 255/131/95 256/451/177 258/132/96
f 72/134/98 73/230/98 63/135/99
f 66/137/100 67/231/100 69/138/49
f 172/139/65 169/198/65 166/140/65
f 248/142/101 252/452/60 254/143/102
f 109/145/104 76/453/163 91/146/14
f 121/148/106 125/185/132 94/149/55
f 112/151/107 107/158/109 103/152/108
f 86/153/6 94/149/55 97/154/109
f 79/156/9 98/150/69 94/149/55
f 87/157/110 80/376/160 107/158/109
f 126/114/89 119/449/308 100/159/111
f 102/147/105 91/146/14 83/161/113
f 106/162/114 83/161/113 84/163/115
f 95/165/116 98/150/69 79/156/9
f 115/49/56 104/48/55 107/158/109
f 102/147/105 106/162/114 113/167/117
f 105/164/116 108/177/69 111/47/54
f 89/170/4 93/160/112 100/159/111
f 116/115/90 103/152/108 101/172/120
f 208/173/121 200/454/20 220/174/122
f 78/176/124 87/157/110 104/48/55
f 106/162/114 105/164/116 114/169/119
f 81/155/7 97/154/109 93/160/112
f 245/178/125 239/356/238 241/179/126
f 109/145/104 102/147/105 117/168/118
f 299/182/129 295/455/206 290/183/130
f 112/151/107 122/203/141 125/185/132
f 117/168/118 127/239/162 120/186/133
f 113/167/117 114/169/119 124/187/134
f 335/189/32 412/243/34 356/190/82
f 115/49/56 125/185/132 121/148/106
f 365/192/26 364/242/23 358/193/137
f 426/136/59 427/135/184 429/195/53
f 151/197/60 166/140/65 169/198/65
f 92/200/140 127/239/162 123/188/135
f 88/202/11 74/456/13 101/172/120
f 95/165/116 124/187/134 121/148/106
f 122/203/141 126/114/89 93/160/112
f 96/201/114 123/188/135 124/187/134
f 105/164/116 84/163/115 78/176/124
f 96/201/114 95/165/116 85/166/8
f 142/205/142 141/280/150 84/206/115
f 92/200/140 96/201/114 82/204/2
f 99/209/143 92/200/140 90/208/1
f 139/211/144 143/398/161 132/212/145
f 140/214/147 144/399/159 131/215/148
f 141/217/150 142/315/142 133/218/151
f 418/220/153 422/457/246 423/221/154
f 396/223/49 397/458/49 399/224/49
f 266/226/103 270/459/102 269/227/156
f 70/229/94 71/460/94 73/230/98
f 64/196/158 65/195/158 67/231/100
f 140/233/147 87/238/110 78/234/124
f 138/16/16 142/205/142 83/207/113
f 139/232/144 88/11/11 80/236/160
f 143/237/161 80/236/160 87/238/110
f 99/209/143 120/186/133 127/239/162
f 196/22/22 191/19/19 199/18/18
f 502/189/37 504/243/39 503/190/164
f 15/54/59 16/71/59 18/53/59
f 206/241/73 210/82/69 209/83/166
f 336/242/25 415/192/24 329/243/33
f 168/118/65 149/85/60 150/86/60
f 215/244/168 214/461/195 231/245/169
f 402/192/26 337/242/23 342/193/137
f 158/246/60 150/462/60 184/247/3
f 421/249/170 425/463/179 424/250/171
f 16/53/59 15/55/59 13/54/59
f 15/54/59 17/55/59 25/53/59
f 37/87/173 35/314/59 34/104/59
f 289/126/61 286/364/233 276/252/93
f 62/136/99 63/135/99 65/195/158
f 44/88/174 32/89/174 36/87/173
f 280/125/93 288/313/187 284/126/63
f 263/253/175 264/464/101 266/254/103
f 262/256/176 258/465/96 256/257/177
f 176/106/65 182/112/64 181/107/64
f 113/167/117 123/188/135 127/239/162
f 432/128/3 430/137/199 431/231/52
f 161/259/64 179/377/64 178/260/64
f 174/96/65 165/118/65 170/84/65
f 5/54/59 7/71/59 8/53/59
f 419/261/155 423/466/154 425/262/179
f 159/259/64 177/377/64 180/260/64
f 255/264/95 259/467/252 260/265/178
f 152/267/60 158/468/60 188/268/3
f 9/54/59 10/71/59 12/53/59
f 250/226/103 254/459/102 253/227/156
f 223/270/180 226/300/254 217/271/181
f 165/118/65 150/85/60 158/86/60
f 191/273/19 192/469/260 189/274/66
f 284/60/63 291/61/207 296/59/182
f 194/277/68 193/470/67 196/278/22
f 141/280/150 144/235/159 78/234/124
f 427/282/184 437/44/51 438/42/49
f 125/185/132 122/203/141 97/154/109
f 281/284/93 271/287/3 1/285/186
f 288/286/187 280/284/93 1/287/186
f 247/253/175 248/464/101 250/254/103
f 301/288/189 303/312/87 309/289/190
f 229/291/78 233/301/250 236/292/192
f 207/294/194 204/305/194 213/295/195
f 56/297/92 50/123/91 52/298/196
f 224/83/198 223/81/180 199/241/18
f 237/100/80 235/99/79 219/175/123
f 428/196/139 429/195/53 431/231/52
f 219/300/123 235/292/79 234/301/200
f 380/302/202 383/471/203 382/303/203
f 14/53/59 13/55/59 11/54/59
f 169/84/65 170/118/65 158/85/60
f 212/296/168 202/294/204 201/305/204
f 298/306/205 291/472/207 295/307/206
f 231/293/169 214/346/195 213/295/195
f 274/309/93 275/372/93 278/310/49
f 277/312/93 276/289/93 275/290/93
f 284/127/63 288/125/187 295/313/206
f 238/301/208 221/271/239 218/300/201
f 231/293/169 230/291/169 234/301/200
f 28/314/209 48/104/59 49/105/173
f 314/90/49 321/446/77 322/91/77
f 30/87/210 49/105/173 47/88/174
f 295/286/206 288/284/187 4/287/188
f 199/270/18 217/300/181 220/271/122
f 298/60/205 307/61/241 312/59/212
f 142/315/142 138/338/16 137/316/213
f 244/317/214 246/473/127 241/179/126
f 304/319/216 305/474/309 297/320/131
f 243/322/217 244/475/214 242/318/215
f 3/324/219 4/476/188 1/321/186
f 46/87/173 45/314/59 42/104/83
f 340/189/32 351/243/34 404/190/82
f 247/325/175 251/477/221 252/326/60
f 249/328/157 253/478/156 251/329/221
f 146/331/12 139/211/144 136/213/146
f 151/333/60 152/479/60 186/94/3
f 147/75/69 159/259/64 162/76/64
f 228/291/193 238/301/208 234/292/200
f 258/335/96 262/480/176 261/336/223
f 203/305/69 216/295/230 213/296/195
f 283/126/62 276/364/93 277/252/93
f 409/192/26 332/242/23 333/193/137
f 138/338/16 145/481/15 130/339/224
f 264/142/101 268/452/60 270/143/102
f 293/340/85 303/482/87 301/341/189
f 29/343/209 31/483/237 40/344/84
f 37/87/173 36/105/173 32/88/174
f 434/229/226 435/460/50 437/230/51
f 265/328/157 269/478/156 267/329/221
f 111/47/54 121/148/106 124/187/134
f 311/286/228 299/284/129 297/287/131
f 212/295/168 229/291/78 232/293/193
f 40/344/84 31/483/237 27/347/231
f 285/290/232 275/288/93 276/312/93
f 292/349/225 301/484/189 302/350/234
f 381/352/236 380/485/202 378/353/202
f 219/300/123 218/271/201 206/272/73
f 200/81/20 208/241/121 209/82/166
f 30/105/210 26/88/211 27/89/231
f 243/355/217 240/323/218 239/356/238
f 291/358/207 298/486/205 300/359/86
f 174/361/65 180/487/64 177/362/64
f 263/325/175 267/477/221 268/326/60
f 395/91/77 394/446/77 391/116/77
f 286/252/233 289/127/61 296/126/182
f 206/270/73 218/300/201 221/271/239
f 383/365/203 385/488/49 384/366/49
f 55/368/72 57/489/197 52/298/196
f 417/369/27 411/369/248 414/370/36
f 292/290/225 285/288/232 286/312/233
f 307/126/241 298/127/205 299/125/129
f 287/311/235 285/309/232 292/372/225
f 366/373/242 364/390/28 358/374/243
f 310/310/245 302/311/234 301/309/189
f 80/376/160 88/202/11 103/152/108
f 164/76/64 163/259/64 181/377/64
f 418/378/153 419/394/155 421/379/170
f 420/381/172 424/490/171 422/382/246
f 239/356/238 240/323/218 242/318/215
f 5/54/59 6/55/59 20/53/59
f 162/259/64 180/377/64 179/260/64
f 387/90/49 394/446/77 395/91/77
f 390/117/77 391/116/77 393/384/57
f 343/370/35 345/101/33 348/385/24
f 339/189/247 338/242/31 348/192/24
f 346/369/27 400/369/248 349/370/36
f 372/369/29 366/369/242 368/386/42
f 198/281/183 190/17/17 195/21/21
f 373/369/27 367/369/248 369/370/44
f 374/189/249 370/242/31 371/192/24
f 233/292/250 237/301/80 220/271/122
f 330/386/46 328/393/167 336/390/30
f 388/52/58 392/50/57 393/384/57
f 367/371/248 365/385/26 361/374/138
f 411/371/248 409/385/26 354/374/138
f 353/102/244 334/103/136 335/393/45
f 401/373/242 337/390/28 342/374/243
f 400/371/248 402/385/26 406/374/138
f 326/50/57 319/384/57 315/51/58
f 357/102/81 356/103/82 412/101/34
f 376/386/41 374/393/251 370/390/30
f 410/373/242 332/390/28 333/374/243
f 30/105/210 31/87/237 29/314/209
f 422/378/246 424/380/171 425/379/179
f 340/393/45 350/386/47 407/102/244
f 181/395/64 163/78/64 160/80/64
f 377/370/43 375/101/38 371/385/24
f 331/370/35 329/101/33 415/385/24
f 13/54/59 15/55/59 24/53/59
f 416/369/29 410/369/242 413/386/47
f 347/369/29 401/369/242 350/386/47
f 233/292/250 229/293/78 227/291/78
f 344/386/46 339/393/167 338/390/30
f 300/127/86 312/126/212 309/364/190
f 45/104/59 46/105/173 36/87/173
f 143/398/161 140/214/147 135/216/149
f 144/399/159 141/217/150 134/219/152
f 148/75/69 162/259/64 161/76/64
f 325/117/77 317/116/77 319/384/57
f 194/400/68 195/491/21 190/401/17
f 255/403/95 257/492/97 261/404/223
f 52/298/196 50/123/91 51/406/253
f 317/117/77 318/116/77 320/384/57
f 154/77/69 157/75/69 161/259/64
f 233/301/250 217/271/181 226/300/254
f 322/91/77 321/446/77 318/116/77
f 436/134/227 437/230/51 427/135/184
f 207/407/194 214/461/195 215/244/168
f 432/128/3 433/138/48 435/129/50
f 41/88/76 44/89/174 46/87/173
f 216/295/230 228/291/193 230/293/169
f 202/305/204 212/295/168 225/296/230
f 363/102/255 503/103/164 504/101/39
f 283/59/62 282/276/62 273/60/62
f 360/102/256 501/103/165 502/393/40
f 122/203/141 112/151/107 116/115/90
f 212/346/168 215/295/168 227/291/78
f 275/309/93 285/372/232 287/310/235
f 439/409/257 440/412/262 442/410/175
f 445/410/259 446/412/263 444/409/260
f 440/412/262 446/412/263 445/410/259
f 439/409/257 444/409/260 446/412/263
f 441/411/258 443/411/261 444/409/260
f 442/410/175 445/410/259 443/411/261
f 447/409/257 448/412/262 450/410/175
f 453/410/259 454/412/263 452/409/260
f 448/412/262 454/412/263 453/410/259
f 447/409/257 452/409/260 454/412/263
f 449/411/258 451/411/261 452/409/260
f 450/410/175 453/410/259 451/411/261
f 470/436/59 464/426/59 500/439/59
