# Blender 4.2.1 LTS
# www.blender.org
mtllib chart.mtl
o Dinossaur_low
v -0.268764 -0.520012 0.526557
v -0.271956 -0.185902 0.580870
v -0.172371 -0.515323 0.834937
v -0.106446 -0.185902 0.844137
v -0.160441 -0.515162 1.040039
v -0.101896 -0.220093 1.004168
v -0.339513 -0.466350 1.346061
v -0.276613 -0.099846 1.339219
v -0.553360 -0.464720 1.296759
v -0.599787 -0.213638 1.201461
v -0.782634 -0.438864 1.129960
v -0.782634 -0.174860 1.129960
v -1.121515 -0.417935 0.785775
v -0.923413 -0.160110 0.740803
v -0.751887 -0.420909 0.553474
v -0.695076 -0.090431 0.562628
v -1.086327 -0.412100 1.033157
v -0.926275 -0.156464 1.017925
v -1.346700 -0.628826 0.818288
v -1.354995 -0.643733 1.013683
v -0.374922 -0.845229 1.303316
v -0.749940 -0.789917 1.198928
v -0.132922 -0.735986 1.061083
v -1.064976 -0.847831 1.002146
v -0.759946 -0.799609 0.713371
v -1.429672 -0.813469 0.983663
v -0.881086 -0.438593 0.629374
v -1.055738 -0.720524 0.747125
v -0.216573 -0.751863 1.340996
v -0.802448 -0.206753 0.607700
v -0.150733 -0.185902 0.773691
v -0.203791 -0.782422 0.504520
v -0.444902 -0.454578 0.494831
v -0.464878 -0.191838 0.527312
v -0.334116 -0.775882 0.506187
v -0.186615 -0.442558 0.726887
v -0.217627 -0.803271 0.819030
v -0.256242 -0.848430 0.995464
v -0.091033 -0.705598 0.684627
v -0.206788 -0.185902 0.684528
v -0.098039 -0.701849 0.586729
v -0.242554 -0.449345 0.602243
v -0.072300 -0.768505 0.761820
v -0.009666 -0.752896 0.675454
v 0.064786 -0.742780 0.756272
v 0.069934 -0.735380 0.730745
v -0.040198 -0.761009 0.471515
v -0.010216 -0.748153 0.552714
v 0.030922 -0.723236 0.471662
v 0.041329 -0.717379 0.500553
v 0.072836 -0.717633 0.626883
v 0.069856 -0.721006 0.588945
v 0.082150 -0.772599 0.750901
v 0.089030 -0.753869 0.732467
v -0.042606 -0.823003 0.761387
v 0.034920 -0.786615 0.678868
v 0.077236 -0.776732 0.635408
v 0.083890 -0.770241 0.592628
v -0.101936 -0.862200 0.614453
v 0.015411 -0.810141 0.554549
v -0.240170 -0.876123 0.696732
v 0.053267 -0.746765 0.500694
v -0.017889 -0.814199 0.473854
v 0.046619 -0.755672 0.468837
v -0.188225 -0.854058 0.543961
v -0.311142 -0.861553 0.588354
v -1.086293 -0.407709 0.911944
v -0.898412 -0.058146 0.886632
v -1.357698 -0.617940 0.910256
v -1.066345 -0.872547 0.924688
v -1.470637 -0.829791 0.919869
v -0.744218 -0.862291 0.918900
v -0.384286 -0.855037 0.920332
v -0.198011 -0.457306 1.164623
v -0.256780 -0.844908 0.808397
v -1.441307 -0.812162 0.860686
v -1.070630 -0.852323 0.834166
v -0.791000 -0.856306 0.805635
v -0.251248 -0.465073 1.230485
v -0.264329 -0.235313 1.244301
v -0.101376 -0.254086 1.151402
v -0.120329 -0.715791 1.166951
v -0.149195 -0.718935 1.258353
v -0.006373 -0.755519 1.103704
v -0.010374 -0.767530 1.132869
v -0.036932 -0.835083 1.074299
v -0.045250 -0.834667 1.155061
v -0.013443 -0.762931 1.239985
v -0.018475 -0.770009 1.275857
v -0.138969 -0.766761 1.371142
v -0.083727 -0.767185 1.351441
v -0.085831 -0.811768 1.309111
v -0.088513 -0.814300 1.364255
v -0.121369 -0.811240 1.380915
v -0.064432 -0.815528 1.284609
v -0.025176 -0.833493 1.215472
v -0.045850 -0.831773 1.179034
v -0.116686 -0.810046 1.033406
v -0.300945 -0.862485 1.067204
v -0.214598 -0.866246 1.280827
v -0.283705 -0.868163 1.220924
v -0.284930 -0.849752 1.268404
v -0.186434 -0.876320 1.210938
v -0.148207 -0.874966 1.186722
v -0.193592 -0.884117 1.150532
v -0.143021 -0.877612 1.065635
v -0.205976 -0.851733 1.008716
v -1.139468 -0.628994 1.070954
v -0.211584 0.086299 0.827822
v -0.205131 0.091642 1.029557
v -0.212725 0.020199 0.760232
v -0.308453 0.079954 0.613998
v -0.258509 0.093316 0.691428
v -0.341243 -0.081244 0.469383
v -0.192069 0.019831 1.128675
v -0.271289 0.002784 1.365160
v -0.604145 -0.073621 0.438903
v -0.732159 0.059421 0.550126
v -0.826672 0.044230 0.712973
v -0.856360 0.084245 0.995920
v -0.857184 0.160165 0.892093
v -0.618857 0.142091 1.294473
v -0.607796 -0.083256 1.213410
v -0.272840 0.235523 1.029401
v -0.349488 -0.141455 0.364581
v -0.445106 0.262143 0.603613
v -0.327441 0.290380 0.716733
v -0.264975 0.238808 0.831946
v -0.763389 0.306620 0.634246
v -0.413258 0.167394 1.372524
v -0.531973 -0.064351 1.446228
v -0.355345 0.054122 1.592837
v -0.575686 0.041874 1.523197
v -0.531325 -0.023554 1.749748
v -0.364516 -0.017916 1.785709
v -0.513476 -0.095891 1.712666
v -0.200227 -0.141214 1.535680
v -0.375531 -0.086655 1.740662
v -0.188363 -0.041189 1.542727
v -0.297028 -0.119359 1.588578
v -0.652706 0.235353 1.150541
v -0.327503 0.445373 0.711861
v -0.655870 -0.027609 0.264289
v -0.322393 -0.040433 0.354368
v -0.564288 0.067336 0.223292
v -0.448582 0.039707 0.303994
v -0.263966 -0.196028 0.272119
v -0.236872 -0.095006 0.261907
v -0.300797 -0.046948 0.148569
v -0.529190 0.000660 0.077244
v -0.581016 -0.085467 0.031421
v -0.470936 -0.177473 0.027399
v -0.483398 -0.123995 -0.043155
v -0.333003 -0.025740 0.044368
v -0.452817 -0.012298 -0.006052
v -0.320548 -0.173320 0.266599
v -0.321883 -0.171192 0.180490
v -0.348810 -0.174249 0.051863
v -0.379146 -0.158311 0.224682
v -0.266584 0.109025 1.185579
v -0.522028 -0.120447 0.394399
v -0.550175 -0.098860 0.256598
v -0.404995 -0.146331 0.384206
v -0.475541 -0.134817 0.186017
v -0.290163 0.407652 1.028251
v -0.858355 0.248602 0.876791
v -0.362210 0.276949 1.183681
v -0.261676 0.418770 0.804922
v -0.433321 0.431113 0.611993
v -0.219322 0.521014 1.005161
v -0.855320 0.410544 0.614270
v -0.920914 0.792661 0.520247
v -0.818261 0.331425 1.173323
v -0.467526 0.389529 1.186507
v -0.903481 0.389733 0.869668
v -0.969593 0.799271 1.171494
v -0.907554 0.772079 0.824318
v -0.193027 0.606426 1.035937
v -0.924855 0.381880 0.349281
v -0.421771 0.619067 1.242747
v -0.862113 0.333567 1.453773
v -0.608080 0.348631 1.517330
v -0.921208 0.481787 1.205959
v -0.932241 0.462990 1.489241
v -1.306732 0.565408 1.783055
v -0.984324 0.768037 0.240521
v -0.184253 0.627562 0.743552
v -0.396126 0.667370 0.582120
v -0.476704 0.923237 0.566960
v -0.196827 0.534222 0.836363
v -0.740650 0.324166 0.351005
v -0.671120 0.553613 0.299900
v -1.009191 0.351851 1.687619
v -0.425485 0.933766 0.789050
v -0.007568 0.798726 0.818035
v 0.001695 1.192867 0.863165
v -0.002999 0.790837 0.948840
v -0.001742 1.189336 0.936121
v -0.522899 0.872458 1.306292
v -0.426105 0.922184 1.034530
v -0.871048 0.325435 1.502445
v -0.649766 0.655326 1.558704
v -0.748676 0.816596 1.545799
v -0.837026 0.616666 1.730260
v -0.924550 0.798760 1.713057
v -1.018944 0.757135 1.432076
v -0.733238 0.262645 1.721798
v -1.137426 0.518839 1.642587
v -1.191027 0.813714 1.689617
v -1.350715 0.844526 1.805885
v -1.026131 1.115082 1.622203
v -0.706085 1.140738 0.589481
v -0.803133 1.122242 0.297153
v -0.580476 1.151270 0.825522
v -0.553843 1.137528 1.063351
v -0.688897 1.110193 1.300505
v -0.981383 0.429496 0.105491
v -0.870055 0.819175 0.044281
v -0.706800 0.275258 0.176952
v -0.816174 0.518804 0.094376
v -1.027249 1.076988 0.297322
v -0.947834 0.586772 1.781361
v -1.008117 1.100935 0.579089
v -1.026335 1.099179 0.850836
v -1.075290 1.080687 1.145670
v -1.259789 1.338168 1.576582
v -1.145608 1.096651 1.396195
v -1.219517 1.098666 1.623649
v -1.290806 1.088990 1.791260
v -1.198162 1.318926 1.786518
v -1.120040 1.398257 0.867001
v -1.166504 1.370867 1.159553
v -1.218218 1.369403 1.379238
v -1.093145 1.406132 0.596282
v -1.076327 1.433292 0.300031
v -0.697366 0.784026 0.251582
v -0.861402 1.415181 0.574816
v -0.909134 1.095174 0.100280
v -1.210819 0.415147 1.706288
v -1.116703 0.839210 1.830978
v -1.138830 1.111850 1.767967
v -0.882240 1.079819 1.451595
v -0.903126 1.317584 0.297429
v -0.910405 1.330383 0.060121
v -0.853776 1.408999 0.870174
v -0.891583 1.406017 1.036659
v -0.945728 1.371136 1.237956
v -1.105899 1.345710 1.566742
v -1.038512 1.374815 1.421949
v -1.067989 1.322358 1.787043
v -1.246096 1.482992 1.484681
v -1.254577 1.384439 1.634904
v -1.188883 1.511300 1.496300
v -1.162313 1.385951 1.638115
v -1.217080 1.595664 1.309550
v -1.155110 1.614788 1.329499
v -1.202141 1.684834 1.165775
v -1.001514 1.821373 0.847359
v -1.109785 1.677459 1.182516
v -1.129832 1.804885 0.972988
v -1.037743 1.821846 0.989937
v -1.095061 1.816986 0.819167
v -1.053279 1.668407 0.632282
v -1.130470 1.680044 0.589830
v -0.204474 1.028185 0.849589
v -0.092591 0.675951 0.772450
v -0.206358 1.020776 1.005751
v -0.095124 0.664500 1.001446
v -0.352158 0.025476 1.678488
v -0.562689 0.013042 1.621053
v -0.343727 -0.096589 1.663056
v -0.558406 -0.085633 1.556520
v -0.270360 -0.352957 0.553714
v -0.117402 -0.350613 0.839537
v -0.114531 -0.367628 1.022103
v -0.308063 -0.283098 1.342640
v -0.576573 -0.339179 1.249110
v -0.782634 -0.306862 1.129960
v -1.022464 -0.289023 0.763289
v -0.723481 -0.255670 0.558051
v -1.006301 -0.284282 1.025541
v -0.841767 -0.322673 0.618537
v -0.151802 -0.314230 0.750289
v -0.454890 -0.323208 0.511072
v -0.224671 -0.317624 0.643386
v -0.992353 -0.232927 0.899288
v -0.157093 -0.355696 1.158013
v -0.257789 -0.350193 1.237393
v -0.120108 -0.432968 0.837237
v -0.116605 -0.441395 1.031071
v -0.323788 -0.374724 1.344351
v -0.564967 -0.401949 1.272935
v -0.782634 -0.372863 1.129960
v -1.071990 -0.353479 0.774532
v -0.737684 -0.338289 0.555763
v -1.046314 -0.348191 1.029349
v -0.861427 -0.380633 0.623955
v -0.169208 -0.378394 0.738588
v -0.449896 -0.388893 0.502951
v -0.233613 -0.383485 0.622815
v -1.039323 -0.320318 0.905616
v -0.155530 -0.406501 1.161318
v -0.254518 -0.407633 1.233939
v -0.269562 -0.436485 0.540135
vn 0.9247 -0.0510 -0.3772
vn 0.9958 -0.0882 -0.0239
vn 0.9085 0.0267 0.4170
vn -0.3665 0.2701 0.8903
vn -0.4574 0.2404 0.8562
vn -0.4917 0.0858 -0.8665
vn 0.2464 0.1578 -0.9562
vn -0.3805 0.2906 0.8779
vn -0.2646 0.2281 0.9370
vn -0.2822 -0.1159 0.9523
vn -0.0782 -0.3232 0.9431
vn -0.2458 0.1648 0.9552
vn -0.2136 0.0780 -0.9738
vn -0.5625 0.2976 -0.7714
vn -0.1777 -0.0939 0.9796
vn -0.1825 -0.2805 -0.9423
vn -0.1037 -0.9456 0.3085
vn 0.6587 0.3386 0.6719
vn 0.9465 -0.1325 -0.2944
vn 0.9404 0.3263 0.0958
vn -0.1442 0.1106 -0.9834
vn -0.2135 -0.3761 -0.9016
vn 0.1880 0.0301 -0.9817
vn -0.2724 -0.7762 -0.5686
vn -0.2793 -0.7026 -0.6545
vn 0.7920 0.4767 -0.3814
vn 0.7303 -0.6829 -0.0150
vn 0.8236 0.0642 -0.5635
vn 0.8735 0.0862 -0.4791
vn 0.5047 0.1956 -0.8409
vn 0.4805 0.7333 0.4810
vn -0.3398 0.9194 0.1980
vn 0.4758 0.8790 0.0318
vn -0.2142 0.8210 -0.5291
vn -0.4689 0.8826 0.0334
vn -0.2954 0.9534 -0.0616
vn 0.6411 0.6928 0.3301
vn 0.9589 0.2659 -0.0990
vn 0.4248 0.4842 -0.7649
vn 0.2907 0.4688 0.8341
vn 0.4614 -0.8821 0.0945
vn 0.4452 -0.8900 0.0986
vn 0.0380 0.0128 0.9992
vn 0.3990 0.0452 -0.9158
vn 0.8485 0.4366 -0.2991
vn 0.6102 0.2515 0.7513
vn -0.0274 -0.0554 -0.9981
vn -0.1085 -0.4975 -0.8607
vn -0.0442 -0.6977 -0.7151
vn 0.6733 -0.7365 0.0654
vn 0.1189 -0.9592 -0.2564
vn 0.3255 0.1700 0.9301
vn -0.1538 -0.9877 0.0291
vn 0.0214 -0.9679 0.2506
vn -0.1202 -0.9701 -0.2110
vn -0.9164 0.3821 0.1192
vn -0.6480 0.7348 0.2002
vn -0.8377 0.5319 0.1238
vn 0.0183 -0.9904 -0.1368
vn -0.0023 -0.9998 0.0191
vn 0.0306 -0.9974 -0.0653
vn -0.7969 0.5999 -0.0710
vn 0.9844 0.1095 -0.1380
vn 0.9134 0.2772 0.2980
vn 0.8438 -0.4429 0.3031
vn 0.6186 -0.0120 0.7856
vn 0.2172 0.9538 -0.2078
vn 0.9355 -0.3530 -0.0170
vn 0.3219 0.9373 0.1339
vn 0.0938 -0.9274 0.3620
vn 0.1410 0.9160 0.3756
vn 0.6124 -0.5007 0.6117
vn 0.4580 0.1897 0.8685
vn 0.8419 0.3501 -0.4106
vn 0.7879 -0.3149 0.5292
vn 0.6274 0.3294 -0.7056
vn 0.8949 -0.4399 0.0755
vn 0.5144 0.3969 -0.7602
vn -0.5058 -0.2574 0.8234
vn 0.1149 -0.9119 0.3941
vn 0.2405 -0.9057 0.3490
vn 0.2211 -0.9060 0.3609
vn 0.3639 -0.9031 -0.2281
vn 0.2773 -0.7807 -0.5600
vn 0.3688 -0.9285 0.0428
vn 0.4295 -0.7707 -0.4708
vn 0.2621 0.2556 -0.9306
vn 0.4447 -0.5209 -0.7287
vn -0.0934 -0.9412 -0.3247
vn -0.1038 -0.9704 -0.2181
vn -0.2503 -0.9681 -0.0077
vn 0.7138 -0.6066 -0.3500
vn 0.2985 -0.9446 -0.1361
vn 0.0626 -0.9979 -0.0190
vn 0.1189 -0.9919 0.0457
vn -0.3495 -0.4885 -0.7995
vn -0.6867 0.7077 -0.1659
vn -0.8920 0.4240 -0.1569
vn 0.9495 0.3112 0.0395
vn 0.8869 0.3227 -0.3306
vn 0.8268 0.2148 -0.5198
vn 0.8157 0.1648 -0.5546
vn 0.9011 0.1732 -0.3974
vn 0.9452 0.3188 0.0703
vn 0.6927 0.1256 0.7102
vn 0.9987 -0.0508 -0.0039
vn -0.7665 -0.2394 -0.5959
vn -0.9028 0.4095 -0.1315
vn -0.9736 0.1804 0.1396
vn -0.5779 0.2392 0.7802
vn -0.2551 -0.3384 0.9058
vn -0.9347 -0.1601 0.3174
vn 0.7675 0.4423 0.4641
vn 0.8164 0.5134 0.2644
vn 0.5844 0.3980 -0.7072
vn 0.8804 0.3492 -0.3210
vn 0.9097 0.2891 -0.2981
vn 0.9428 0.3311 -0.0389
vn -0.2018 0.8485 0.4893
vn -0.9451 -0.0869 0.3149
vn -0.1798 0.8057 0.5643
vn -0.1093 0.9257 0.3620
vn -0.9892 -0.1080 0.0995
vn -0.1744 -0.9805 -0.0910
vn -0.1628 -0.5224 0.8370
vn 0.7535 0.6439 0.1330
vn 0.9099 0.0567 -0.4109
vn 0.4559 -0.1162 0.8824
vn 0.9259 0.0162 0.3774
vn -0.0215 -0.9980 -0.0594
vn -0.7236 0.5544 0.4112
vn -0.5622 -0.8048 -0.1905
vn 0.9653 -0.2519 0.0688
vn -0.7435 0.5581 -0.3684
vn 0.5207 0.6826 -0.5128
vn 0.8778 0.3797 -0.2921
vn 0.6947 -0.1145 0.7101
vn 0.5278 0.8489 0.0285
vn 0.4116 0.8624 -0.2948
vn -0.7371 0.5300 -0.4191
vn -0.5915 -0.6894 -0.4181
vn 0.1271 0.9912 -0.0377
vn -0.4566 0.3905 -0.7994
vn 0.7823 -0.2762 -0.5583
vn 0.9420 -0.1162 -0.3148
vn 0.3988 0.1889 -0.8974
vn 0.1434 -0.7763 -0.6138
vn -0.3710 -0.9285 -0.0172
vn -0.2344 -0.9719 -0.0204
vn -0.5589 -0.8098 -0.1784
vn -0.0274 -0.9493 -0.3133
vn -0.2147 -0.9447 0.2478
vn -0.2489 -0.9680 0.0324
vn -0.3715 -0.9251 0.0785
vn -0.5078 -0.8609 -0.0311
vn -0.6799 0.2269 -0.6974
vn -0.8279 -0.2469 -0.5035
vn -0.9337 0.1244 -0.3358
vn 0.8137 0.4673 0.3459
vn 0.8576 -0.0917 -0.5060
vn 0.9941 0.1003 0.0413
vn 0.6878 -0.0225 -0.7256
vn -0.0880 0.0555 -0.9946
vn -0.7170 -0.6707 -0.1899
vn -0.9913 0.0096 0.1313
vn 0.0013 -0.2286 0.9735
vn 0.5490 0.4967 0.6722
vn -0.9349 -0.2885 0.2070
vn -0.9864 -0.1613 0.0324
vn -0.9987 -0.0164 -0.0482
vn 0.6613 -0.3002 0.6874
vn 0.0551 -0.9983 0.0162
vn -0.8311 -0.5417 -0.1258
vn -0.9629 -0.1695 -0.2098
vn -0.9597 -0.1001 0.2627
vn 0.5445 -0.2913 -0.7865
vn 0.7526 -0.2577 -0.6060
vn 0.8526 -0.5159 0.0831
vn 0.9403 -0.3254 0.0998
vn 0.0477 -0.9427 0.3301
vn 0.7407 -0.1978 -0.6420
vn 0.7583 0.2021 -0.6198
vn 0.5714 0.5418 -0.6164
vn 0.1441 0.2552 -0.9561
vn 0.9994 -0.0043 -0.0352
vn 0.2893 0.0788 0.9540
vn 0.4760 -0.8786 -0.0387
vn 0.6112 0.4541 0.6483
vn -0.6244 0.7810 0.0084
vn 0.8989 -0.2647 0.3492
vn 0.6067 0.4258 0.6712
vn 0.5700 0.4067 0.7139
vn 0.7891 0.2176 0.5745
vn 0.0952 -0.9845 -0.1470
vn -0.6204 -0.3437 -0.7050
vn -0.6214 -0.3220 -0.7142
vn -0.5918 -0.0274 -0.8056
vn -0.6413 -0.0174 -0.7671
vn 0.6506 0.7131 -0.2611
vn 0.8543 0.5156 -0.0659
vn 0.7798 0.5905 -0.2078
vn 0.4823 0.5017 0.7181
vn 0.7189 0.5134 0.4686
vn -0.9739 -0.0914 0.2080
vn -0.2944 -0.9334 0.2050
vn 0.9411 -0.2300 0.2477
vn 0.0891 -0.2837 -0.9548
vn -0.8618 -0.0192 -0.5068
vn -0.9567 -0.1756 0.2323
vn -0.9608 -0.2763 0.0235
vn -0.9341 -0.3278 -0.1413
vn -0.9037 -0.3606 -0.2307
vn -0.8121 -0.3521 -0.4653
vn -0.9012 -0.1813 -0.3938
vn -0.9566 -0.1076 0.2709
vn -0.9346 -0.2636 -0.2386
vn -0.9287 -0.2803 -0.2428
vn -0.9423 -0.2858 -0.1744
vn -0.9622 -0.2643 -0.0662
vn -0.9875 -0.1366 0.0787
vn -0.8502 -0.0931 -0.5182
vn 0.8189 -0.0270 -0.5734
vn 0.7550 0.3137 -0.5758
vn -0.1435 -0.0657 0.9875
vn 0.5428 0.2030 0.8149
vn -0.2968 -0.9511 -0.0858
vn -0.0281 -0.3641 0.9309
vn -0.1083 -0.0980 0.9893
vn -0.1043 0.0849 0.9909
vn 0.7727 0.2018 0.6019
vn 0.7411 0.3941 0.5436
vn 0.7824 0.4012 -0.4764
vn 0.8399 0.4599 -0.2882
vn 0.6097 0.7082 -0.3560
vn 0.6077 0.7795 0.1520
vn 0.6445 0.7052 0.2955
vn 0.7960 0.4611 0.3922
vn 0.8039 0.3867 0.4519
vn 0.7562 -0.3069 0.5779
vn 0.1577 -0.0432 0.9865
vn -0.0291 0.9136 0.4056
vn 0.5712 0.8208 -0.0113
vn -0.9949 0.1001 0.0095
vn -0.4666 0.7514 0.4666
vn 0.7129 0.5450 0.4413
vn -0.9785 -0.0561 -0.1982
vn 0.7678 0.5182 0.3768
vn -0.9797 -0.1079 -0.1687
vn 0.8156 0.4919 0.3046
vn -0.9463 0.0600 -0.3176
vn -0.9941 0.0482 -0.0974
vn 0.9139 0.3452 0.2137
vn 0.8647 0.2870 -0.4122
vn -0.9883 -0.1363 -0.0686
vn 0.5162 0.7806 -0.3523
vn 0.4707 0.5187 -0.7137
vn 0.1426 0.7900 -0.5962
vn -0.4695 0.7759 0.4214
vn 0.0022 0.9196 0.3928
vn -0.0264 0.8530 0.5213
vn -0.1872 0.9817 0.0349
vn -0.4023 0.9146 0.0421
vn 0.8312 -0.5525 -0.0623
vn 0.3783 0.1070 0.9195
vn 0.1627 0.2601 -0.9518
vn -0.0995 -0.9723 -0.2115
vn 0.8502 0.2748 0.4491
vn -0.9415 -0.3054 0.1426
vn -0.1423 0.9371 0.3187
vn 0.5895 0.0705 0.8047
vn 0.9587 0.0076 0.2845
vn -0.7888 0.6133 0.0414
vn -0.8434 0.5324 0.0723
vn 0.8943 0.0801 -0.4402
vn 0.8728 0.0336 -0.4870
vn -0.1608 0.1090 -0.9809
vn -0.5361 0.2726 -0.7989
vn -0.3235 0.2568 0.9107
vn 0.2392 0.1580 -0.9580
vn -0.5043 0.0908 -0.8587
vn -0.5150 0.2193 0.8287
vn -0.3017 0.2891 0.9085
vn 0.8492 0.0166 0.5278
vn 0.9993 -0.0305 -0.0194
vn 0.8914 -0.0166 -0.4529
vn 0.7704 -0.4771 -0.4229
vn 0.8560 -0.5147 -0.0494
vn 0.7947 0.0087 0.6070
vn -0.2111 0.3125 0.9262
vn -0.5614 0.2009 0.8028
vn -0.5138 0.0946 -0.8527
vn 0.2317 0.1582 -0.9598
vn -0.2772 0.2292 0.9331
vn -0.5127 0.2507 -0.8212
vn -0.1751 0.1077 -0.9786
vn 0.9122 0.0041 -0.4096
vn 0.9200 0.0714 -0.3853
vn -0.8469 0.5314 0.0190
vn -0.7681 0.6189 0.1643
vn 0.7962 -0.4202 0.4353
vn 0.7773 0.0064 0.6291
vn 0.8432 0.0896 -0.5301
vn 0.9970 -0.0651 -0.0423
vn 0.9284 -0.1530 0.3385
vn -0.4168 0.0884 0.9047
vn -0.3642 -0.0000 0.9313
vn -0.4810 0.1068 -0.8702
vn 0.2610 0.1380 -0.9554
vn -0.6150 -0.0000 0.7885
vn -0.2525 -0.0597 0.9657
vn -0.5772 0.1053 0.8098
vn -0.4312 -0.4009 0.8083
vn -0.2770 0.2304 0.9328
vn -0.5460 -0.0117 -0.8377
vn -0.6983 0.1719 -0.6949
vn -0.2244 -0.0885 0.9705
vn -0.4410 -0.3411 -0.8302
vn -0.1046 -0.9469 0.3040
vn 0.7529 0.3139 0.5785
vn 0.9913 0.1180 -0.0578
vn 0.7730 -0.1555 0.6151
vn -0.1300 0.0498 -0.9903
vn -0.4226 -0.1771 -0.8888
vn -0.0087 0.0816 -0.9966
vn -0.0930 -0.5414 -0.8356
vn -0.2657 -0.7789 -0.5681
vn 0.9357 0.3486 -0.0536
vn 0.6839 -0.7286 -0.0368
vn 0.8455 0.0512 -0.5315
vn 0.6638 0.4180 -0.6202
vn 0.0581 0.7807 0.6221
vn -0.1825 0.9822 0.0452
vn 0.5023 0.8647 -0.0028
vn 0.3629 0.8903 -0.2750
vn -0.5068 0.8620 0.0078
vn -0.3740 0.9267 0.0375
vn 0.7343 0.3197 0.5989
vn 0.9811 0.0972 0.1673
vn 0.4881 0.4335 -0.7575
vn 0.6903 0.1534 0.7070
vn 0.0913 -0.9866 -0.1355
vn 0.3090 -0.8757 0.3710
vn 0.1253 -0.1048 0.9866
vn 0.4150 0.1450 -0.8982
vn 0.8579 0.3467 -0.3793
vn 0.6062 0.2727 0.7471
vn -0.0350 0.0699 -0.9969
vn -0.3375 -0.1822 -0.9235
vn -0.2649 -0.5086 -0.8192
vn 0.7141 -0.6492 -0.2620
vn 0.3596 -0.9276 -0.1017
vn 0.2352 -0.4422 0.8655
vn 0.0185 -0.9679 0.2505
vn 0.0358 -0.9522 0.3032
vn -0.0955 -0.9401 -0.3274
vn -0.8009 0.4452 0.4004
vn -0.6122 0.7902 0.0285
vn -0.8622 0.4760 0.1735
vn 0.0099 -0.9902 -0.1396
vn 0.0204 -0.9979 -0.0611
vn -0.0360 -0.9757 -0.2163
vn -0.8731 0.4570 -0.1698
vn 0.9461 0.2857 0.1526
vn 0.7073 0.3517 0.6132
vn 0.4677 -0.2004 0.8609
vn 0.4882 0.7814 0.3888
vn 0.8959 -0.4341 0.0945
vn 0.3279 0.9170 0.2269
vn -0.2714 -0.8997 0.3419
vn 0.0260 0.9212 0.3883
vn 0.0920 0.5253 0.8459
vn 0.3202 0.3224 0.8908
vn 0.9950 -0.0890 0.0443
vn 0.6989 -0.7139 -0.0428
vn 0.8700 0.0264 -0.4924
vn 0.4267 0.3604 0.8295
vn 0.3409 0.2079 -0.9168
vn -0.3501 0.0667 0.9343
vn 0.2354 -0.6796 0.6948
vn -0.2805 -0.7067 0.6496
vn -0.0123 -0.8297 0.5581
vn 0.2472 -0.9075 0.3395
vn 0.3609 -0.8992 -0.2472
vn 0.3106 -0.9427 0.1216
vn -0.0777 -0.8629 0.4993
vn 0.3938 -0.9189 -0.0230
vn 0.0858 0.3652 -0.9270
vn 0.2669 -0.4977 -0.8253
vn -0.0118 -0.9799 -0.1993
vn -0.0578 -0.9979 -0.0304
vn -0.1391 -0.9899 0.0288
vn 0.3694 -0.9272 -0.0618
vn 0.1597 -0.9443 0.2877
vn 0.1202 -0.9857 -0.1182
vn -0.4507 -0.8749 0.1775
vn -0.0896 -0.1803 -0.9795
vn -0.6093 0.7858 0.1064
vn -0.8499 0.4399 -0.2901
vn 0.9329 0.3580 -0.0393
vn 0.8955 0.1760 -0.4089
vn 0.8328 0.1796 -0.5236
vn 0.2243 -0.6371 -0.7375
vn 0.9472 0.3058 0.0967
vn 0.5017 0.2352 0.8325
vn 0.9951 0.0229 0.0961
vn -0.7099 -0.7038 0.0248
vn -0.9420 0.1849 -0.2801
vn -0.9602 0.2794 0.0055
vn -0.7878 0.0909 0.6091
vn -0.3818 -0.1076 0.9180
vn -0.9232 -0.3842 0.0059
vn 0.7112 0.5967 0.3717
vn 0.8644 0.4071 0.2951
vn 0.6351 0.4402 -0.6347
vn 0.7634 0.3377 -0.5507
vn 0.8999 0.3230 -0.2930
vn 0.9040 0.4254 0.0431
vn -0.2689 0.8625 0.4287
vn 0.0900 -0.8612 0.5003
vn -0.2687 0.8629 0.4280
vn -0.1381 0.9433 0.3019
vn -0.9441 -0.1970 -0.2643
vn -0.2693 -0.9581 -0.0970
vn -0.1436 -0.4793 0.8658
vn 0.4924 0.8703 -0.0144
vn 0.9228 -0.0829 -0.3763
vn 0.3324 0.0887 0.9390
vn 0.9823 -0.1831 0.0391
vn 0.0374 -0.9892 0.1420
vn -0.7279 0.4846 0.4852
vn -0.4192 -0.8061 -0.4176
vn 0.7104 -0.6330 0.3078
vn -0.8891 0.0427 -0.4557
vn 0.0770 0.8774 -0.4736
vn 0.3914 0.8451 0.3640
vn 0.5627 0.8260 0.0329
vn 0.2734 0.9270 -0.2568
vn -0.6921 0.6163 -0.3756
vn -0.6416 -0.7669 -0.0157
vn 0.1565 0.9762 0.1503
vn -0.5252 0.6239 -0.5787
vn 0.7805 -0.2665 -0.5656
vn 0.9574 -0.2127 -0.1954
vn 0.5486 -0.1003 -0.8301
vn 0.0226 -0.9996 0.0190
vn -0.3815 -0.9063 0.1821
vn -0.3675 -0.9109 0.1877
vn -0.4245 -0.8774 0.2236
vn -0.2312 -0.8951 -0.3814
vn -0.2309 -0.9729 -0.0156
vn 0.1199 -0.9884 0.0937
vn -0.2235 -0.9689 -0.1061
vn -0.5608 -0.8263 -0.0516
vn -0.5993 0.2598 -0.7572
vn -0.8658 0.0597 -0.4969
vn -0.9889 -0.0380 -0.1439
vn 0.8721 0.0910 0.4808
vn 0.8138 -0.0179 -0.5808
vn 0.9920 0.0008 0.1266
vn 0.6946 -0.0128 -0.7193
vn 0.0037 -0.1856 -0.9826
vn -0.8631 -0.2966 -0.4089
vn -0.3742 -0.7681 0.5196
vn -0.0963 -0.1149 0.9887
vn 0.6567 -0.2667 0.7054
vn -0.8077 -0.5781 0.1157
vn -0.9817 -0.0327 -0.1878
vn -0.9730 -0.1657 -0.1609
vn 0.5929 -0.4283 0.6820
vn 0.1651 -0.9849 -0.0516
vn -0.8847 -0.4616 -0.0651
vn -0.9546 -0.2924 -0.0566
vn -0.9701 -0.0853 0.2274
vn 0.6869 -0.1966 -0.6997
vn 0.7482 -0.5157 -0.4173
vn 0.8605 -0.5038 0.0753
vn 0.9934 -0.1123 0.0217
vn -0.2957 -0.9384 0.1791
vn 0.6742 -0.3492 -0.6508
vn 0.7270 -0.0606 -0.6840
vn 0.9324 0.2801 -0.2283
vn -0.0259 0.1143 -0.9931
vn 0.9985 -0.0287 0.0456
vn 0.0962 0.0754 0.9925
vn 0.4971 -0.8664 -0.0477
vn 0.8922 0.2643 0.3661
vn -0.6296 0.7764 0.0292
vn 0.8122 0.0318 0.5825
vn 0.8072 0.1813 0.5617
vn 0.6221 0.3645 0.6930
vn 0.6763 -0.0074 0.7366
vn 0.1015 -0.9377 -0.3322
vn -0.8806 -0.4139 -0.2308
vn -0.8363 -0.0652 -0.5444
vn -0.6374 0.0070 -0.7705
vn -0.5355 -0.1333 -0.8339
vn 0.7106 0.3075 -0.6329
vn 0.8164 0.5768 0.0293
vn 0.6224 0.6939 -0.3622
vn 0.6017 0.4364 0.6690
vn 0.8194 0.4363 0.3717
vn -0.8699 0.1762 -0.4606
vn -0.4768 -0.8769 -0.0607
vn 0.7940 0.1575 -0.5871
vn 0.0206 -0.1609 -0.9868
vn -0.8565 -0.0242 -0.5156
vn -0.9538 -0.2868 0.0891
vn -0.9396 -0.3359 -0.0652
vn -0.9164 -0.3602 -0.1747
vn -0.9037 -0.3614 -0.2296
vn -0.9386 -0.1641 -0.3035
vn -0.5744 0.0921 -0.8134
vn -0.8711 0.3438 -0.3507
vn -0.9293 -0.2152 -0.3001
vn -0.9385 -0.2637 -0.2227
vn -0.9414 -0.2875 -0.1764
vn -0.9508 -0.2923 -0.1030
vn -0.9615 -0.2634 -0.0787
vn -0.8391 -0.1115 -0.5325
vn 0.7706 0.0321 -0.6365
vn 0.8464 0.2184 -0.4857
vn 0.4712 -0.4303 0.7700
vn 0.3482 0.2526 0.9027
vn -0.3060 -0.9474 -0.0932
vn 0.0304 -0.4393 0.8978
vn 0.0155 -0.1828 0.9830
vn 0.1131 0.2324 0.9660
vn 0.5400 0.3879 0.7469
vn 0.5621 0.5164 0.6461
vn 0.9995 0.0002 -0.0307
vn 0.8466 0.4338 -0.3085
vn 0.8705 0.4920 -0.0122
vn 0.6827 0.7299 -0.0343
vn 0.5513 0.7331 0.3984
vn 0.4365 0.5920 0.6775
vn 0.7295 0.4391 0.5245
vn 0.9462 0.2956 -0.1315
vn -0.0017 -0.0897 0.9960
vn -0.0257 0.9134 0.4063
vn 0.7847 0.5300 0.3214
vn -0.9418 -0.2173 0.2565
vn -0.0354 0.7455 0.6656
vn 0.7093 0.5256 0.4697
vn -0.9763 -0.0425 -0.2124
vn 0.7562 0.4846 0.4398
vn -0.9712 -0.0657 -0.2291
vn 0.7739 0.3326 0.5389
vn -0.9802 -0.1080 -0.1658
vn -0.9754 0.0333 -0.2179
vn 0.9119 0.3395 0.2306
vn 0.7961 0.6051 -0.0079
vn -0.9662 -0.1264 0.2246
vn 0.5556 0.8310 0.0278
vn 0.6174 0.6521 -0.4399
vn 0.3977 0.7595 -0.5149
vn -0.3894 0.8159 0.4274
vn -0.3930 0.7992 0.4548
vn -0.2464 0.8174 0.5207
vn -0.0426 0.9990 -0.0141
vn -0.4049 0.9136 0.0385
vn 0.8037 -0.5947 -0.0208
vn 0.3002 0.0295 0.9534
vn 0.1502 0.2600 -0.9538
vn -0.1497 -0.9679 0.2021
vn 0.9974 0.0706 -0.0135
vn -0.9433 -0.2094 0.2577
vn -0.1464 0.9434 0.2974
vn 0.9544 0.0485 0.2946
vn -0.8808 0.4734 -0.0002
vn -0.8737 0.4766 0.0974
vn 0.8870 0.0236 -0.4612
vn 0.8220 -0.1215 -0.5564
vn -0.1587 0.0546 -0.9858
vn -0.6047 0.1317 -0.7855
vn -0.4230 -0.0000 0.9061
vn 0.2440 0.1372 -0.9600
vn -0.5012 0.1099 -0.8583
vn -0.5006 -0.0000 0.8657
vn -0.3421 0.0762 0.9366
vn 0.8567 -0.1378 0.4971
vn 0.9993 -0.0323 -0.0187
vn 0.8951 -0.1675 -0.4133
vn 0.8534 -0.1399 -0.5022
vn 0.8442 -0.5347 -0.0385
vn 0.8218 -0.1307 0.5545
vn -0.2903 0.0676 0.9545
vn -0.5490 -0.0000 0.8358
vn -0.5085 0.1111 -0.8538
vn 0.2346 0.1368 -0.9624
vn -0.3565 -0.0000 0.9343
vn -0.5678 0.1164 -0.8149
vn -0.1706 0.0566 -0.9837
vn 0.8670 -0.1484 -0.4758
vn 0.9170 0.0001 -0.3988
vn -0.8776 0.4759 0.0576
vn -0.8737 0.4766 0.0972
vn 0.7239 -0.5811 0.3720
vn 0.5434 -0.4066 0.7344
vt 0.309645 0.648708
vt 0.325922 0.625509
vt 0.326361 0.653266
vt 0.353112 0.630899
vt 0.356246 0.655384
vt 0.406611 0.637615
vt 0.424569 0.649253
vt 0.401602 0.657559
vt 0.493371 0.649931
vt 0.477240 0.675553
vt 0.537373 0.686994
vt 0.152308 0.666336
vt 0.176857 0.669834
vt 0.153810 0.696036
vt 0.235507 0.665290
vt 0.267962 0.630216
vt 0.271264 0.662658
vt 0.605105 0.662744
vt 0.606808 0.711916
vt 0.619212 0.859644
vt 0.574616 0.821197
vt 0.606973 0.758735
vt 0.459647 0.698701
vt 0.461027 0.786847
vt 0.403776 0.741425
vt 0.521194 0.867875
vt 0.609304 0.901590
vt 0.523066 0.719234
vt 0.090268 0.756990
vt 0.152602 0.813880
vt 0.082328 0.836285
vt 0.104461 0.669846
vt 0.096887 0.713536
vt 0.420275 0.683290
vt 0.394581 0.720159
vt 0.158092 0.725705
vt 0.223815 0.792218
vt 0.512508 0.890877
vt 0.618917 0.921667
vt 0.396145 0.676460
vt 0.384720 0.712773
vt 0.325833 0.681942
vt 0.360089 0.716382
vt 0.323810 0.734024
vt 0.307832 0.710776
vt 0.306699 0.671509
vt 0.227685 0.640030
vt 0.244578 0.688648
vt 0.185950 0.705224
vt 0.275684 0.690255
vt 0.276718 0.727341
vt 0.228389 0.817811
vt 0.288083 0.738512
vt 0.298035 0.710514
vt 0.284503 0.676296
vt 0.357130 0.742502
vt 0.322537 0.743165
vt 0.291955 0.627322
vt 0.287353 0.652662
vt 0.289434 0.721470
vt 0.308833 0.719857
vt 0.304169 0.717195
vt 0.304904 0.719389
vt 0.304714 0.719301
vt 0.299845 0.717363
vt 0.297736 0.718594
vt 0.298853 0.718619
vt 0.301861 0.718302
vt 0.301593 0.718380
vt 0.304679 0.719433
vt 0.301612 0.718738
vt 0.303344 0.719229
vt 0.300329 0.719437
vt 0.300287 0.724332
vt 0.306375 0.721790
vt 0.299065 0.718783
vt 0.298853 0.718804
vt 0.298999 0.718607
vt 0.298541 0.719525
vt 0.293613 0.725810
vt 0.343065 0.782819
vt 0.421567 0.850498
vt 0.174629 0.874832
vt 0.087982 0.879663
vt 0.165509 0.851881
vt 0.650526 0.861154
vt 0.646313 0.693088
vt 0.303566 0.734886
vt 0.254353 0.838616
vt 0.061075 0.695807
vt 0.359433 0.681086
vt 0.374538 0.712013
vt 0.382551 0.673369
vt 0.375667 0.637483
vt 0.379828 0.654858
vt 0.371578 0.720568
vt 0.372841 0.720743
vt 0.371007 0.723801
vt 0.379500 0.720308
vt 0.387337 0.738501
vt 0.392549 0.734802
vt 0.388173 0.720760
vt 0.386118 0.720907
vt 0.380796 0.720441
vt 0.383618 0.722344
vt 0.381813 0.722380
vt 0.387358 0.722314
vt 0.386168 0.722246
vt 0.378806 0.722583
vt 0.376676 0.723275
vt 0.375051 0.723849
vt 0.365693 0.725322
vt 0.387398 0.729824
vt 0.382008 0.732469
vt 0.378835 0.731223
vt 0.376554 0.734407
vt 0.370942 0.749931
vt 0.369540 0.730281
vt 0.361847 0.735394
vt 0.304722 0.719580
vt 0.058240 0.840495
vt 0.362233 0.566280
vt 0.302500 0.584699
vt 0.315577 0.568886
vt 0.311387 0.625974
vt 0.264351 0.574887
vt 0.284001 0.569951
vt 0.243411 0.611539
vt 0.381627 0.585111
vt 0.401642 0.563664
vt 0.426546 0.615022
vt 0.432216 0.596002
vt 0.979722 0.304551
vt 0.963402 0.248258
vt 1.000000 0.269151
vt 0.064260 0.642664
vt 0.111168 0.607034
vt 0.647902 0.627008
vt 0.611435 0.579552
vt 0.643524 0.554940
vt 0.549213 0.651296
vt 0.501705 0.619814
vt 0.494777 0.556933
vt 0.921041 0.377301
vt 0.930154 0.304551
vt 0.979933 0.346301
vt 0.913951 0.510761
vt 0.979933 0.514347
vt 0.951566 0.558255
vt 0.230705 0.528940
vt 0.274570 0.519088
vt 0.311009 0.528364
vt 0.851497 0.481454
vt 0.897026 0.457282
vt 0.466271 0.605712
vt 0.867541 0.548644
vt 0.879805 0.594673
vt 0.889945 0.442990
vt 0.860916 0.420282
vt 0.885624 0.432767
vt 0.888330 0.359023
vt 0.898063 0.389674
vt 0.869566 0.381943
vt 0.962189 0.437846
vt 0.914260 0.430417
vt 0.889827 0.428754
vt 0.951371 0.465552
vt 0.922149 0.445567
vt 0.924717 0.438861
vt 0.900781 0.428891
vt 0.880628 0.413814
vt 0.528034 0.510419
vt 0.992671 0.201548
vt 0.954745 0.221066
vt 0.970988 0.159631
vt 0.946593 0.178503
vt 0.941347 0.154855
vt 0.905532 0.016243
vt 0.899399 0.106717
vt 0.872983 0.084022
vt 1.000000 0.068890
vt 0.929843 0.122457
vt 0.923958 0.166154
vt 0.909488 0.159344
vt 0.877776 0.136710
vt 0.884750 0.189520
vt 0.868476 0.214708
vt 0.865458 0.180558
vt 0.894960 0.161570
vt 0.880132 0.157790
vt 0.849812 0.145095
vt 0.913578 0.177375
vt 0.897228 0.175566
vt 0.924716 0.173212
vt 0.925076 0.178646
vt 0.919248 0.187495
vt 0.912551 0.255624
vt 0.910367 0.203452
vt 0.920159 0.224874
vt 0.953343 0.191216
vt 0.158732 0.593338
vt 0.170740 0.630213
vt 0.056895 0.559308
vt 0.129161 0.520716
vt 0.365048 0.525686
vt 0.418895 0.512443
vt 0.299636 0.481510
vt 0.362744 0.473936
vt 0.232443 0.482432
vt 0.270371 0.479800
vt 0.042430 0.523476
vt 0.105560 0.487526
vt 0.582522 0.458250
vt 0.660585 0.534116
vt 0.442296 0.468705
vt 0.688471 0.498509
vt 0.004812 0.416942
vt 0.076476 0.396338
vt 0.623078 0.407950
vt 0.777322 0.404260
vt 0.341726 0.445867
vt 0.402845 0.403145
vt 0.497336 0.381552
vt 0.552987 0.375092
vt 0.625279 0.310301
vt 0.688702 0.337126
vt 0.131400 0.431706
vt 0.245323 0.425003
vt 0.289170 0.434304
vt 0.306448 0.449848
vt 0.338658 0.425404
vt 0.154211 0.437290
vt 0.177138 0.417483
vt 0.180233 0.388001
vt 0.240746 0.377806
vt 0.281168 0.372439
vt 0.309081 0.397198
vt 0.308934 0.402725
vt 0.303527 0.419977
vt 0.315293 0.404434
vt 0.312576 0.399711
vt 0.316215 0.403138
vt 0.314768 0.397959
vt 0.333949 0.422253
vt 0.317796 0.403128
vt 0.318715 0.404839
vt 0.318952 0.409536
vt 0.317281 0.407050
vt 0.336233 0.360905
vt 0.312074 0.396836
vt 0.311719 0.399211
vt 0.460813 0.337120
vt 0.389745 0.338048
vt 0.447696 0.303328
vt 0.495562 0.313311
vt 0.517665 0.348872
vt 0.549197 0.365766
vt 0.573175 0.352417
vt 0.565698 0.310350
vt 0.580551 0.268631
vt 0.549574 0.289744
vt 0.552112 0.259831
vt 0.548419 0.308125
vt 0.176061 0.339801
vt 0.223314 0.324737
vt 0.334888 0.361265
vt 0.273003 0.319911
vt 0.319547 0.308714
vt 0.919438 0.714265
vt 0.860083 0.661617
vt 0.919438 0.663985
vt 0.369760 0.277573
vt 0.414778 0.241962
vt 0.913675 0.597107
vt 0.858596 0.654474
vt 0.849812 0.594673
vt 0.122824 0.387496
vt 0.142873 0.411894
vt 0.152853 0.421562
vt 0.153984 0.407675
vt 0.147237 0.347618
vt 0.149274 0.381395
vt 0.114723 0.345825
vt 0.065199 0.331707
vt 0.820916 0.291357
vt 0.660761 0.224671
vt 0.728206 0.257198
vt 0.554437 0.211922
vt 0.599615 0.209591
vt 0.558317 0.149330
vt 0.619630 0.145480
vt 0.680001 0.145628
vt 0.749276 0.163018
vt 0.849812 0.183975
vt 0.000000 0.316260
vt 0.087037 0.269060
vt 0.135193 0.296277
vt 0.144594 0.326753
vt 0.536690 0.328925
vt 0.511697 0.305354
vt 0.487128 0.281553
vt 0.518910 0.261572
vt 0.461722 0.204721
vt 0.514084 0.196459
vt 0.163234 0.314049
vt 0.193123 0.274572
vt 0.246707 0.239158
vt 0.281930 0.215537
vt 0.332647 0.194302
vt 0.378665 0.160565
vt 0.422319 0.143001
vt 0.490741 0.133213
vt 0.585883 0.107557
vt 0.603490 0.130718
vt 0.436494 0.116121
vt 0.651856 0.104802
vt 0.645525 0.083902
vt 0.382446 0.098646
vt 0.716987 0.077046
vt 0.323528 0.100933
vt 0.772000 0.061128
vt 0.277107 0.113234
vt 0.849812 0.034259
vt 0.032241 0.235470
vt 0.114753 0.171460
vt 0.205684 0.123419
vt 0.144902 0.219733
vt 0.175646 0.149603
vt 0.128083 0.226842
vt 0.132474 0.155820
vt 0.709155 0.054502
vt 0.762783 0.029966
vt 0.106853 0.127725
vt 0.087608 0.143579
vt 0.281341 0.371497
vt 0.849812 0.456044
vt 0.398887 0.667132
vt 0.379088 0.663067
vt 0.357436 0.667702
vt 0.058722 0.722124
vt 0.093508 0.735159
vt 0.645526 0.724874
vt 0.607072 0.735351
vt 0.285763 0.664798
vt 0.273417 0.677099
vt 0.308005 0.660093
vt 0.181057 0.687986
vt 0.239915 0.677259
vt 0.155522 0.710827
vt 0.530429 0.703535
vt 0.468520 0.687536
vt 0.422737 0.666549
vt 0.326945 0.666354
vt 0.644544 0.755982
vt 0.056058 0.748561
vt 0.301967 0.718695
vt 0.080255 0.895314
vt 0.056786 0.582998
vt 0.965640 0.000000
vt 0.311493 0.398457
vt 0.327635 0.418590
vt 0.849812 0.719684
vt 0.913675 0.661617
vt 0.527208 0.125326
vt 0.847250 0.000000
s 0
usemtl Skin
f 283/1/1 4/2/1 274/3/1
f 274/3/2 6/4/2 275/5/2
f 80/6/3 276/7/3 288/8/3
f 276/7/4 10/9/4 277/10/4
f 10/9/5 278/11/5 277/10/5
f 30/12/6 280/13/6 282/14/6
f 284/15/7 2/16/7 273/17/7
f 278/11/8 18/18/8 281/19/8
f 20/20/9 108/21/9 17/22/9
f 9/23/10 22/24/10 21/25/10
f 24/26/11 108/21/11 26/27/11
f 11/28/12 108/21/12 22/24/12
f 13/29/13 28/30/13 19/31/13
f 14/32/14 282/14/14 279/33/14
f 7/34/15 21/25/15 29/35/15
f 27/36/16 25/37/16 28/30/16
f 70/38/17 26/27/17 71/39/17
f 79/40/18 29/35/18 83/41/18
f 3/42/19 23/43/19 37/44/19
f 3/42/20 39/45/20 36/46/20
f 280/13/21 34/47/21 284/15/21
f 33/48/22 25/37/22 15/49/22
f 1/50/23 35/51/23 33/48/23
f 78/52/24 28/30/24 25/37/24
f 66/53/25 25/37/25 35/51/25
f 36/46/26 41/54/26 42/55/26
f 37/44/27 38/56/27 75/57/27
f 40/58/28 283/1/28 285/59/28
f 2/16/29 285/59/29 273/17/29
f 1/50/30 41/54/30 32/60/30
f 39/45/31 43/61/31 44/62/31
f 44/62/32 45/63/32 46/64/32
f 41/54/33 44/62/33 48/65/33
f 41/54/34 47/66/34 32/60/34
f 48/65/35 49/67/35 47/66/35
f 48/65/36 51/68/36 52/69/36
f 45/63/37 54/70/37 46/64/37
f 51/68/38 58/71/38 52/69/38
f 46/64/39 56/72/39 44/62/39
f 56/72/40 51/68/40 44/62/40
f 58/71/41 56/72/41 60/73/41
f 56/72/42 59/74/42 60/73/42
f 55/75/43 45/63/43 43/61/43
f 58/71/44 48/65/44 52/69/44
f 49/67/45 62/76/45 64/77/45
f 48/65/46 62/76/46 50/78/46
f 47/66/47 64/77/47 63/79/47
f 47/66/48 65/80/48 32/60/48
f 32/60/49 66/53/49 35/51/49
f 62/76/50 63/79/50 64/77/50
f 63/79/51 59/74/51 65/80/51
f 37/44/52 55/75/52 43/61/52
f 22/24/53 73/81/53 21/25/53
f 24/26/54 72/82/54 22/24/54
f 70/83/55 76/84/55 77/85/55
f 69/86/56 26/27/56 20/20/56
f 17/22/57 69/86/57 20/20/57
f 18/18/58 286/87/58 281/19/58
f 61/88/59 65/80/59 59/74/59
f 73/81/60 78/52/60 66/53/60
f 70/83/61 78/52/61 72/89/61
f 286/90/62 14/32/62 279/33/62
f 5/91/63 82/92/63 23/43/63
f 74/93/64 83/41/64 82/92/64
f 275/5/65 81/94/65 287/95/65
f 287/95/66 80/6/66 288/8/66
f 82/92/67 84/96/67 23/43/67
f 85/97/68 86/98/68 84/96/68
f 83/41/69 88/99/69 82/92/69
f 101/100/70 102/101/70 21/25/70
f 83/41/71 90/102/71 91/103/71
f 89/104/72 92/105/72 95/106/72
f 91/103/73 94/107/73 93/108/73
f 91/103/74 92/105/74 83/41/74
f 88/99/75 95/106/75 96/109/75
f 88/99/76 97/110/76 82/92/76
f 85/97/77 97/110/77 87/111/77
f 23/43/78 86/98/78 98/112/78
f 29/35/79 102/101/79 94/107/79
f 94/107/80 100/113/80 93/108/80
f 92/105/81 103/114/81 95/106/81
f 95/106/82 104/115/82 96/109/82
f 97/110/83 104/115/83 105/116/83
f 87/111/84 105/116/84 99/117/84
f 87/111/85 106/118/85 86/98/85
f 92/105/86 100/113/86 101/100/86
f 23/43/87 107/119/87 38/56/87
f 98/112/88 106/118/88 107/119/88
f 99/117/89 107/119/89 106/118/89
f 101/100/90 104/115/90 103/114/90
f 21/25/91 99/117/91 101/100/91
f 53/120/92 56/72/92 54/70/92
f 55/75/93 61/88/93 56/72/93
f 38/56/94 73/81/94 75/57/94
f 66/53/95 75/57/95 73/81/95
f 77/85/96 19/31/96 28/30/96
f 69/121/97 13/29/97 19/31/97
f 76/84/98 69/121/98 19/31/98
f 4/2/99 110/122/99 6/4/99
f 4/2/100 111/123/100 109/124/100
f 40/58/101 111/123/101 31/125/101
f 40/58/102 112/126/102 113/127/102
f 2/16/103 114/128/103 112/126/103
f 6/4/104 115/129/104 81/94/104
f 80/6/105 115/129/105 160/130/105
f 8/131/106 160/130/106 116/132/106
f 118/133/107 117/134/107 16/135/107
f 68/136/108 119/137/108 14/32/108
f 68/138/109 120/139/109 121/140/109
f 12/141/110 120/139/110 18/18/110
f 12/141/111 123/142/111 122/143/111
f 131/144/112 122/145/112 123/146/112
f 130/147/113 160/148/113 167/149/113
f 110/122/114 160/130/114 115/129/114
f 112/126/115 126/150/115 127/151/115
f 113/127/116 127/151/116 128/152/116
f 113/127/117 109/124/117 111/123/117
f 128/152/118 110/122/118 109/124/118
f 130/147/119 133/153/119 132/154/119
f 10/9/120 131/155/120 123/142/120
f 122/156/121 167/149/121 141/157/121
f 269/158/122 134/159/122 135/160/122
f 133/161/123 272/162/123 270/163/123
f 8/164/124 140/165/124 131/144/124
f 134/159/125 138/166/125 135/160/125
f 132/154/126 116/167/126 130/147/126
f 139/168/127 8/164/127 116/167/127
f 139/168/128 140/165/128 137/169/128
f 269/158/129 138/166/129 271/170/129
f 271/170/130 136/171/130 272/162/130
f 120/139/131 141/172/131 121/140/131
f 34/173/132 117/134/132 161/174/132
f 114/175/133 125/176/133 144/177/133
f 118/178/134 145/179/134 143/180/134
f 145/179/135 126/181/135 146/182/135
f 114/175/136 146/182/136 126/181/136
f 125/176/137 148/183/137 144/177/137
f 144/177/138 149/184/138 146/182/138
f 146/182/139 150/185/139 145/179/139
f 150/185/140 143/180/140 145/179/140
f 152/186/141 151/187/141 153/188/141
f 150/185/142 154/189/142 155/190/142
f 151/191/143 155/190/143 153/188/143
f 148/183/144 157/192/144 149/184/144
f 149/184/145 158/193/145 154/189/145
f 154/189/146 153/188/146 155/190/146
f 158/193/147 152/186/147 153/188/147
f 147/194/148 156/195/148 157/192/148
f 156/195/149 159/196/149 157/192/149
f 143/197/150 164/198/150 162/199/150
f 34/173/151 163/200/151 125/176/151
f 157/192/152 164/198/152 152/186/152
f 159/196/153 163/200/153 164/198/153
f 163/200/154 162/199/154 164/198/154
f 117/134/155 162/199/155 161/174/155
f 119/137/156 30/12/156 14/32/156
f 119/137/157 118/201/157 16/202/157
f 119/137/158 166/203/158 129/204/158
f 124/205/159 167/206/159 160/130/159
f 127/151/160 168/207/160 128/152/160
f 128/152/161 165/208/161 124/205/161
f 127/151/162 169/209/162 142/210/162
f 129/204/163 169/209/163 126/150/163
f 129/204/164 175/211/164 171/212/164
f 121/140/165 173/213/165 166/214/165
f 141/172/166 174/215/166 173/213/166
f 165/208/167 174/215/167 167/206/167
f 173/213/168 175/216/168 166/214/168
f 171/212/169 177/217/169 172/218/169
f 183/219/170 177/220/170 175/216/170
f 170/221/171 180/222/171 174/215/171
f 173/213/172 182/223/172 181/224/172
f 181/224/173 183/219/173 173/213/173
f 183/219/174 206/225/174 176/226/174
f 172/218/175 179/227/175 171/212/175
f 142/210/176 188/228/176 187/229/176
f 142/210/177 190/230/177 168/207/177
f 168/207/178 170/221/178 165/208/178
f 190/230/179 178/231/179 170/221/179
f 171/212/180 191/232/180 169/209/180
f 169/209/181 192/233/181 188/228/181
f 188/228/182 236/234/182 189/235/182
f 188/228/183 194/236/183 187/229/183
f 265/237/184 195/238/184 266/239/184
f 195/240/185 198/241/185 197/242/185
f 267/243/186 178/244/186 268/245/186
f 268/246/187 187/247/187 266/248/187
f 200/249/188 180/222/188 178/231/188
f 265/250/189 198/241/189 196/251/189
f 180/222/190 182/223/190 174/215/190
f 202/252/191 199/253/191 203/254/191
f 203/254/192 204/255/192 202/252/192
f 182/223/193 204/255/193 207/256/193
f 182/223/194 201/257/194 181/224/194
f 184/258/195 201/257/195 208/259/195
f 208/259/196 206/225/196 184/258/196
f 209/260/197 185/261/197 210/262/197
f 208/259/198 239/263/198 185/261/198
f 189/235/199 213/264/199 212/265/199
f 200/266/200 214/267/200 215/268/200
f 189/269/201 214/270/201 194/271/201
f 203/254/202 216/272/202 242/273/202
f 199/274/203 215/275/203 216/276/203
f 186/277/204 217/278/204 179/227/204
f 179/227/205 219/279/205 191/232/205
f 219/279/206 192/233/206 191/232/206
f 217/278/207 220/280/207 219/279/207
f 186/277/208 238/281/208 218/282/208
f 172/218/209 221/283/209 186/277/209
f 177/217/210 223/284/210 172/218/210
f 176/226/211 224/285/211 177/220/211
f 176/226/212 227/286/212 225/287/212
f 209/260/213 227/286/213 206/225/213
f 209/260/214 229/288/214 228/289/214
f 228/289/215 230/290/215 226/291/215
f 227/286/216 226/291/216 233/292/216
f 227/286/217 232/293/217 225/287/217
f 225/287/218 231/294/218 224/285/218
f 224/295/219 234/296/219 223/284/219
f 223/284/220 235/297/220 221/283/220
f 221/283/221 244/298/221 238/281/221
f 220/280/222 236/234/222 192/233/222
f 218/282/223 213/264/223 236/234/223
f 204/255/224 193/299/224 207/256/224
f 222/300/225 205/301/225 240/302/225
f 193/299/226 201/257/226 207/256/226
f 222/300/227 239/263/227 193/299/227
f 185/261/228 240/302/228 210/262/228
f 240/302/229 229/288/229 210/262/229
f 240/302/230 211/303/230 241/304/230
f 205/301/231 242/273/231 211/303/231
f 238/281/232 243/305/232 213/264/232
f 212/265/233 243/305/233 237/306/233
f 212/265/234 245/307/234 214/267/234
f 215/268/235 245/307/235 246/308/235
f 216/272/236 246/308/236 247/309/236
f 242/273/237 247/309/237 249/310/237
f 211/303/238 249/310/238 248/311/238
f 211/303/239 250/312/239 241/304/239
f 241/304/240 230/290/240 229/288/240
f 230/290/241 254/313/241 252/314/241
f 248/311/242 254/315/242 250/312/242
f 226/291/243 252/314/243 251/316/243
f 252/314/244 253/317/244 251/316/244
f 249/310/245 253/318/245 248/311/245
f 233/292/246 251/316/246 255/319/246
f 247/309/247 256/320/247 249/310/247
f 232/293/248 255/319/248 257/321/248
f 246/308/249 259/322/249 247/309/249
f 231/294/250 257/321/250 260/323/250
f 231/324/251 262/325/251 234/296/251
f 245/307/252 261/326/252 246/308/252
f 245/307/253 263/327/253 258/328/253
f 234/296/254 264/329/254 235/297/254
f 243/305/255 235/297/255 237/306/255
f 237/306/256 264/329/256 263/327/256
f 263/327/257 262/325/257 258/330/257
f 253/317/258 255/319/258 251/316/258
f 257/321/259 256/331/259 259/332/259
f 259/332/260 260/323/260 257/321/260
f 261/333/261 262/325/261 260/334/261
f 200/266/262 265/250/262 194/335/262
f 197/242/263 266/248/263 195/240/263
f 197/242/264 267/243/264 268/245/264
f 187/229/265 265/237/265 266/239/265
f 140/165/266 272/162/266 131/144/266
f 132/154/267 271/170/267 140/165/267
f 270/163/268 136/171/268 134/159/268
f 132/154/269 270/336/269 269/158/269
f 287/95/270 303/337/270 302/338/270
f 275/5/271 302/338/271 290/339/271
f 301/340/272 279/33/272 294/341/272
f 281/19/273 301/342/273 296/343/273
f 273/17/274 300/344/274 304/345/274
f 285/59/275 298/346/275 300/344/275
f 295/347/276 284/15/276 299/348/276
f 279/33/277 297/349/277 294/341/277
f 293/350/278 281/19/278 296/343/278
f 299/348/279 273/17/279 304/345/279
f 282/14/280 295/347/280 297/349/280
f 277/10/281 293/350/281 292/351/281
f 291/352/282 277/10/282 292/351/282
f 288/8/283 291/352/283 303/337/283
f 289/353/284 275/5/284 290/339/284
f 298/346/285 274/3/285 289/353/285
f 36/46/286 289/353/286 3/42/286
f 3/42/287 290/339/287 5/91/287
f 303/337/288 7/34/288 79/40/288
f 7/34/289 292/351/289 9/23/289
f 292/351/290 11/28/290 9/23/290
f 297/349/291 15/49/291 27/36/291
f 33/48/292 304/345/292 1/50/292
f 11/28/293 296/343/293 17/22/293
f 294/341/294 27/36/294 13/29/294
f 15/49/295 299/348/295 33/48/295
f 300/344/296 36/46/296 42/55/296
f 304/345/297 42/55/297 1/50/297
f 296/343/298 67/354/298 17/22/298
f 67/355/299 294/341/299 13/29/299
f 290/339/300 74/93/300 5/91/300
f 74/93/301 303/337/301 79/40/301
f 283/1/302 31/125/302 4/2/302
f 274/3/303 4/2/303 6/4/303
f 80/6/304 8/131/304 276/7/304
f 276/7/305 8/131/305 10/9/305
f 10/9/306 12/141/306 278/11/306
f 30/12/307 16/202/307 280/13/307
f 284/15/308 34/47/308 2/16/308
f 278/11/309 12/141/309 18/18/309
f 20/20/310 26/27/310 108/21/310
f 9/23/311 11/28/311 22/24/311
f 24/26/312 22/24/312 108/21/312
f 11/28/313 17/22/313 108/21/313
f 13/29/314 27/36/314 28/30/314
f 14/32/315 30/12/315 282/14/315
f 7/34/316 9/23/316 21/25/316
f 27/36/317 15/49/317 25/37/317
f 70/38/318 24/26/318 26/27/318
f 79/40/319 7/34/319 29/35/319
f 3/42/320 5/91/320 23/43/320
f 3/42/321 37/44/321 39/45/321
f 280/13/322 16/202/322 34/47/322
f 33/48/323 35/51/323 25/37/323
f 1/50/324 32/60/324 35/51/324
f 78/52/325 77/85/325 28/30/325
f 66/53/326 78/52/326 25/37/326
f 36/46/327 39/45/327 41/54/327
f 37/44/328 23/43/328 38/56/328
f 40/58/302 31/125/302 283/1/302
f 2/16/329 40/58/329 285/59/329
f 1/50/330 42/55/330 41/54/330
f 39/45/331 37/44/331 43/61/331
f 44/62/332 43/61/332 45/63/332
f 41/54/333 39/45/333 44/62/333
f 41/54/334 48/65/334 47/66/334
f 48/65/335 50/78/335 49/67/335
f 48/65/336 44/62/336 51/68/336
f 45/63/337 53/120/337 54/70/337
f 51/68/338 57/356/338 58/71/338
f 46/64/339 54/70/339 56/72/339
f 56/72/340 57/356/340 51/68/340
f 58/71/341 57/356/341 56/72/341
f 56/72/342 61/88/342 59/74/342
f 55/75/343 53/120/343 45/63/343
f 58/71/344 60/73/344 48/65/344
f 49/67/345 50/78/345 62/76/345
f 48/65/346 60/73/346 62/76/346
f 47/66/347 49/67/347 64/77/347
f 47/66/348 63/79/348 65/80/348
f 32/60/349 65/80/349 66/53/349
f 62/76/350 60/73/350 63/79/350
f 63/79/351 60/73/351 59/74/351
f 37/44/352 75/57/352 55/75/352
f 22/24/353 72/82/353 73/81/353
f 24/26/354 70/38/354 72/82/354
f 70/83/355 71/357/355 76/84/355
f 69/86/356 71/39/356 26/27/356
f 17/22/357 67/354/357 69/86/357
f 18/18/358 68/138/358 286/87/358
f 61/88/359 66/53/359 65/80/359
f 73/81/360 72/89/360 78/52/360
f 70/83/361 77/85/361 78/52/361
f 286/90/362 68/136/362 14/32/362
f 5/91/363 74/93/363 82/92/363
f 74/93/364 79/40/364 83/41/364
f 275/5/2 6/4/2 81/94/2
f 287/95/365 81/94/365 80/6/365
f 82/92/366 85/97/366 84/96/366
f 85/97/367 87/111/367 86/98/367
f 83/41/368 89/104/368 88/99/368
f 101/100/369 100/113/369 102/101/369
f 83/41/370 29/35/370 90/102/370
f 89/104/371 83/41/371 92/105/371
f 91/103/372 90/102/372 94/107/372
f 91/103/373 93/108/373 92/105/373
f 88/99/374 89/104/374 95/106/374
f 88/99/375 96/109/375 97/110/375
f 85/97/376 82/92/376 97/110/376
f 23/43/377 84/96/377 86/98/377
f 94/107/378 90/102/378 29/35/378
f 29/35/379 21/25/379 102/101/379
f 94/107/380 102/101/380 100/113/380
f 92/105/381 101/100/381 103/114/381
f 95/106/382 103/114/382 104/115/382
f 97/110/383 96/109/383 104/115/383
f 87/111/384 97/110/384 105/116/384
f 87/111/385 99/117/385 106/118/385
f 92/105/386 93/108/386 100/113/386
f 23/43/387 98/112/387 107/119/387
f 98/112/388 86/98/388 106/118/388
f 99/117/389 38/56/389 107/119/389
f 101/100/390 99/117/390 104/115/390
f 21/25/391 73/81/391 99/117/391
f 53/120/392 55/75/392 56/72/392
f 55/75/393 75/57/393 61/88/393
f 38/56/394 99/117/394 73/81/394
f 66/53/395 61/88/395 75/57/395
f 77/85/396 76/84/396 19/31/396
f 69/121/397 67/355/397 13/29/397
f 76/84/398 71/357/398 69/121/398
f 4/2/399 109/124/399 110/122/399
f 4/2/101 31/125/101 111/123/101
f 40/58/400 113/127/400 111/123/400
f 40/58/401 2/16/401 112/126/401
f 2/16/402 34/47/402 114/128/402
f 6/4/403 110/122/403 115/129/403
f 80/6/404 81/94/404 115/129/404
f 8/131/405 80/6/405 160/130/405
f 118/133/406 143/197/406 117/134/406
f 68/136/407 121/358/407 119/137/407
f 68/138/408 18/18/408 120/139/408
f 12/141/409 122/143/409 120/139/409
f 12/141/410 10/9/410 123/142/410
f 131/144/411 133/161/411 122/145/411
f 130/147/412 116/167/412 160/148/412
f 110/122/413 124/205/413 160/130/413
f 112/126/414 114/128/414 126/150/414
f 113/127/415 112/126/415 127/151/415
f 113/127/416 128/152/416 109/124/416
f 128/152/417 124/205/417 110/122/417
f 130/147/418 122/156/418 133/153/418
f 10/9/419 8/131/419 131/155/419
f 122/156/420 130/147/420 167/149/420
f 269/158/421 270/336/421 134/159/421
f 133/161/422 131/144/422 272/162/422
f 8/164/423 137/169/423 140/165/423
f 134/159/424 136/171/424 138/166/424
f 132/154/425 139/168/425 116/167/425
f 139/168/426 137/169/426 8/164/426
f 139/168/427 132/154/427 140/165/427
f 269/158/428 135/160/428 138/166/428
f 271/170/429 138/166/429 136/171/429
f 120/139/430 122/143/430 141/172/430
f 34/173/431 16/135/431 117/134/431
f 114/175/432 34/173/432 125/176/432
f 118/178/433 129/359/433 145/179/433
f 145/179/434 129/359/434 126/181/434
f 114/175/435 144/177/435 146/182/435
f 125/176/137 147/194/137 148/183/137
f 144/177/436 148/183/436 149/184/436
f 146/182/437 149/184/437 150/185/437
f 150/185/438 151/191/438 143/180/438
f 152/186/439 143/197/439 151/187/439
f 150/185/440 149/184/440 154/189/440
f 151/191/441 150/185/441 155/190/441
f 148/183/442 147/194/442 157/192/442
f 149/184/443 157/192/443 158/193/443
f 154/189/444 158/193/444 153/188/444
f 158/193/445 157/192/445 152/186/445
f 147/194/446 125/176/446 156/195/446
f 156/195/447 125/176/447 159/196/447
f 143/197/448 152/186/448 164/198/448
f 34/173/449 161/174/449 163/200/449
f 157/192/450 159/196/450 164/198/450
f 159/196/451 125/176/451 163/200/451
f 163/200/452 161/174/452 162/199/452
f 117/134/453 143/197/453 162/199/453
f 119/137/454 16/202/454 30/12/454
f 119/137/455 129/204/455 118/201/455
f 119/137/456 121/358/456 166/203/456
f 124/205/457 165/208/457 167/206/457
f 127/151/458 142/210/458 168/207/458
f 128/152/459 168/207/459 165/208/459
f 127/151/460 126/150/460 169/209/460
f 129/204/461 171/212/461 169/209/461
f 129/204/462 166/203/462 175/211/462
f 121/140/463 141/172/463 173/213/463
f 141/172/464 167/206/464 174/215/464
f 165/208/465 170/221/465 174/215/465
f 173/213/466 183/219/466 175/216/466
f 171/212/467 175/211/467 177/217/467
f 183/219/468 176/226/468 177/220/468
f 170/221/469 178/231/469 180/222/469
f 173/213/470 174/215/470 182/223/470
f 181/224/471 184/258/471 183/219/471
f 183/219/472 184/258/472 206/225/472
f 172/218/473 186/277/473 179/227/473
f 142/210/474 169/209/474 188/228/474
f 142/210/475 187/229/475 190/230/475
f 168/207/476 190/230/476 170/221/476
f 190/230/477 187/229/477 178/231/477
f 171/212/478 179/227/478 191/232/478
f 169/209/479 191/232/479 192/233/479
f 188/228/480 192/233/480 236/234/480
f 188/228/481 189/235/481 194/236/481
f 265/237/482 196/360/482 195/238/482
f 195/240/483 196/251/483 198/241/483
f 267/243/484 200/266/484 178/244/484
f 268/246/485 178/361/485 187/247/485
f 200/249/486 199/253/486 180/222/486
f 265/250/487 267/243/487 198/241/487
f 180/222/488 202/252/488 182/223/488
f 202/252/489 180/222/489 199/253/489
f 203/254/490 205/301/490 204/255/490
f 182/223/491 202/252/491 204/255/491
f 182/223/492 207/256/492 201/257/492
f 184/258/493 181/224/493 201/257/493
f 208/259/494 209/260/494 206/225/494
f 209/260/495 208/259/495 185/261/495
f 208/259/496 201/257/496 239/263/496
f 189/235/497 236/234/497 213/264/497
f 200/266/498 194/335/498 214/267/498
f 189/269/499 212/362/499 214/270/499
f 203/254/500 199/253/500 216/272/500
f 199/274/501 200/363/501 215/275/501
f 186/277/502 218/282/502 217/278/502
f 179/227/503 217/278/503 219/279/503
f 219/279/504 220/280/504 192/233/504
f 217/278/505 218/282/505 220/280/505
f 186/277/506 221/283/506 238/281/506
f 172/218/507 223/284/507 221/283/507
f 177/217/508 224/295/508 223/284/508
f 176/226/509 225/287/509 224/285/509
f 176/226/510 206/225/510 227/286/510
f 209/260/511 228/289/511 227/286/511
f 209/260/512 210/262/512 229/288/512
f 228/289/513 229/288/513 230/290/513
f 227/286/514 228/289/514 226/291/514
f 227/286/515 233/292/515 232/293/515
f 225/287/516 232/293/516 231/294/516
f 224/295/517 231/324/517 234/296/517
f 223/284/518 234/296/518 235/297/518
f 221/283/519 235/297/519 244/298/519
f 220/280/520 218/282/520 236/234/520
f 218/282/521 238/281/521 213/264/521
f 204/255/522 222/300/522 193/299/522
f 222/300/523 204/255/523 205/301/523
f 193/299/524 239/263/524 201/257/524
f 222/300/525 185/261/525 239/263/525
f 185/261/526 222/300/526 240/302/526
f 240/302/527 241/304/527 229/288/527
f 240/302/528 205/301/528 211/303/528
f 205/301/529 203/254/529 242/273/529
f 238/281/530 244/298/530 243/305/530
f 212/265/531 213/264/531 243/305/531
f 212/265/532 237/306/532 245/307/532
f 215/268/533 214/267/533 245/307/533
f 216/272/534 215/268/534 246/308/534
f 242/273/535 216/272/535 247/309/535
f 211/303/536 242/273/536 249/310/536
f 211/303/537 248/311/537 250/312/537
f 241/304/538 250/364/538 230/290/538
f 230/290/539 250/364/539 254/313/539
f 248/311/540 253/318/540 254/315/540
f 226/291/541 230/290/541 252/314/541
f 252/314/542 254/313/542 253/317/542
f 249/310/543 256/320/543 253/318/543
f 233/292/544 226/291/544 251/316/544
f 247/309/545 259/322/545 256/320/545
f 232/293/546 233/292/546 255/319/546
f 246/308/547 261/326/547 259/322/547
f 231/294/548 232/293/548 257/321/548
f 231/324/549 260/334/549 262/325/549
f 245/307/550 258/328/550 261/326/550
f 245/307/551 237/306/551 263/327/551
f 234/296/552 262/325/552 264/329/552
f 243/305/553 244/298/553 235/297/553
f 237/306/554 235/297/554 264/329/554
f 263/327/555 264/329/555 262/325/555
f 253/317/556 256/331/556 255/319/556
f 257/321/557 255/319/557 256/331/557
f 259/332/558 261/365/558 260/323/558
f 261/333/559 258/330/559 262/325/559
f 200/266/560 267/243/560 265/250/560
f 197/242/561 268/246/561 266/248/561
f 197/242/562 198/241/562 267/243/562
f 187/229/563 194/236/563 265/237/563
f 140/165/564 271/170/564 272/162/564
f 132/154/565 269/158/565 271/170/565
f 270/163/566 272/162/566 136/171/566
f 132/154/567 133/153/567 270/336/567
f 287/95/66 288/8/66 303/337/66
f 275/5/568 287/95/568 302/338/568
f 301/340/569 286/90/569 279/33/569
f 281/19/570 286/87/570 301/342/570
f 273/17/571 285/59/571 300/344/571
f 285/59/572 283/1/572 298/346/572
f 295/347/573 280/13/573 284/15/573
f 279/33/574 282/14/574 297/349/574
f 293/350/575 278/11/575 281/19/575
f 299/348/576 284/15/576 273/17/576
f 282/14/577 280/13/577 295/347/577
f 277/10/578 278/11/578 293/350/578
f 291/352/579 276/7/579 277/10/579
f 288/8/580 276/7/580 291/352/580
f 289/353/581 274/3/581 275/5/581
f 298/346/582 283/1/582 274/3/582
f 36/46/583 298/346/583 289/353/583
f 3/42/584 289/353/584 290/339/584
f 303/337/585 291/352/585 7/34/585
f 7/34/586 291/352/586 292/351/586
f 292/351/587 293/350/587 11/28/587
f 297/349/588 295/347/588 15/49/588
f 33/48/589 299/348/589 304/345/589
f 11/28/590 293/350/590 296/343/590
f 294/341/591 297/349/591 27/36/591
f 15/49/592 295/347/592 299/348/592
f 300/344/593 298/346/593 36/46/593
f 304/345/594 300/344/594 42/55/594
f 296/343/595 301/342/595 67/354/595
f 67/355/596 301/340/596 294/341/596
f 290/339/597 302/338/597 74/93/597
f 74/93/598 302/338/598 303/337/598
