# Blender 4.2.1 LTS
# www.blender.org
o pCube1
v -1.152252 -0.943883 1.004739
v 0.845316 -0.943883 1.004739
v -1.152252 1.053685 1.004738
v 0.845316 1.053685 1.004738
v -1.152252 1.053685 -0.992830
v 0.845316 1.053685 -0.992830
v -1.152252 -0.943883 -0.992829
v 0.845316 -0.943883 -0.992829
vn -0.0000 -0.0000 1.0000
vn -0.0000 1.0000 -0.0000
vn -0.0000 -0.0000 -1.0000
vn -0.0000 -1.0000 -0.0000
vn 1.0000 -0.0000 -0.0000
vn -1.0000 -0.0000 -0.0000
vt 0.244814 0.367454
vt -0.005089 0.617551
vt -0.005186 0.367551
vt 0.496765 0.382489
vt 0.245929 0.615646
vt 0.246767 0.381704
vt 0.738613 0.363064
vt 0.496846 0.625375
vt 0.496753 0.363165
vt 0.496473 0.116140
vt 0.246569 0.384151
vt 0.246473 0.116243
vt 0.502135 0.613633
vt 0.249790 0.887345
vt 0.249693 0.613739
vt 0.997889 0.368861
vt 0.737407 0.618958
vt 0.737307 0.368958
vt 0.244911 0.617455
vt 0.495927 0.616430
vt 0.738706 0.625274
vt 0.496570 0.384048
vt 0.502232 0.887239
vt 0.997989 0.618861
s 1
f 2/1/1 3/2/1 1/3/1
f 4/4/2 5/5/2 3/6/2
f 6/7/3 7/8/3 5/9/3
f 8/10/4 1/11/4 7/12/4
f 8/13/5 4/14/5 2/15/5
f 1/16/6 5/17/6 7/18/6
f 2/1/1 4/19/1 3/2/1
f 4/4/2 6/20/2 5/5/2
f 6/7/3 8/21/3 7/8/3
f 8/10/4 2/22/4 1/11/4
f 8/13/5 6/23/5 4/14/5
f 1/16/6 3/24/6 5/17/6
